<svg xmlns="http://www.w3.org/2000/svg" viewBox="200 1864.9068 527.4519 604.1066">
  <path d="m 4442.06,2762.5 -83.47,116.4 H 2602.91 l -86.27,-116.4 z m -1925.42,2043.7 86.27,-116.4 h 1755.68 l 83.47,116.4 z M 4799.38,2301.1 v 116.3 H 2163.07 v -116.3 z m 0,2853 v 116.3 H 2163.07 v -116.3 z m -471.74,508.3 v 350.8 h 698.7 V 4838 H 4786.25 L 4459.86,4376.6 V 3103 l 326.39,-463.3 h 240.09 v -468 h 429.55 V 1482.4 H 1500 v 689.3 h 430.47 v 468 h 226.02 L 2495.05,3103 V 4376.6 L 2160.24,4838 h -229.77 v 1175.2 h 684.63 v -350.8 h 379.84 v 350.8 h 957.56 v -350.8 h 375.14" style="fill:#100f0d;fill-opacity:1;fill-rule:evenodd;stroke:none" transform="matrix(0.13333332538604736, 0, 0, -0.13333332538604736, 0, 2666.666748046875)"/>
</svg>
