<?xml version="1.0" encoding="utf-8"?>
<svg xmlns="http://www.w3.org/2000/svg" viewBox="1877.2663 1031.347 507.5731 603.9733" width="507.573px" height="603.973px">
  <path id="path4" d="m 17508.3,10437 c 0,51.6 -6.6,101.3 -22.5,148.2 -15,46 -37.5,87.2 -68.5,122.9 -30.9,34.7 -67.5,61.9 -111.6,83.5 -45,20.6 -95.7,30 -154.7,30 -79.8,0 -152,-17.8 -217.6,-55.4 -66.6,-36.5 -125.7,-86.3 -179.2,-150 -54.3,-63.8 -102.2,-138.8 -144.4,-224.2 -43.1,-85.3 -78.8,-176.3 -109.7,-272.9 -31,-97.5 -55.4,-196.9 -76,-299.2 -18.7,-103.1 -34.7,-203.5 -45,-302 23.4,-3.7 46,-5.6 70.3,-5.6 22.5,0 48.8,0 77.9,0 122.8,0 242,20.6 360.1,63.8 118.2,44.1 223.2,105 314.2,185.7 91.9,79.7 165.1,176.3 222.3,290.7 56.3,114.4 84.4,242 84.4,384.5 z m -3051.8,0 c 0,-142.5 28.1,-270.1 84.4,-384.5 57.2,-114.4 131.3,-211 223.2,-290.7 91,-80.7 196,-141.6 314.2,-185.7 117.2,-43.2 237.3,-63.8 359.2,-63.8 29.1,0 55.3,0 78.8,0 23.4,0 46.9,1.9 69.4,5.6 -10.3,98.5 -25.3,198.9 -45,302 -19.7,102.3 -45.1,201.7 -76,299.2 -31,96.6 -66.6,187.6 -108.8,272.9 -42.2,85.4 -90,160.4 -144.4,224.2 -53.5,63.7 -113.5,113.5 -180.1,150 -64.7,37.6 -137.9,55.4 -216.6,55.4 -59.1,0 -110.7,-9.4 -154.8,-30 -44.1,-21.6 -80.6,-48.8 -112.5,-83.5 -30.1,-35.7 -53.5,-76.9 -67.6,-122.9 -15.9,-46.9 -23.4,-96.6 -23.4,-148.2 z m 3225.3,0 c 0,-168.8 -32.8,-320.7 -100.4,-456.7 -66.5,-134.1 -153.8,-249.4 -261.6,-345.1 -107.9,-94.8 -230.7,-167.9 -368.6,-218.5 -138.8,-51.6 -280.4,-77.9 -423.9,-77.9 -67.5,0 -129.4,3.8 -184.8,9.4 -54.4,6.6 -104.1,16.9 -147.2,29.1 7.5,112.5 21.6,232.6 40.3,356.3 20.7,125.7 47.8,247.6 83.5,367.7 34.7,119.1 77.8,232.6 128.5,340.4 51.6,108.8 111.6,203.6 179.1,285.2 68.5,81.5 146.3,146.3 234.5,195 86.3,48.8 182.9,73.2 289.8,73.2 85.3,0 161.3,-15 228.8,-44.1 66.6,-31 121.9,-70.4 166.9,-121 45,-49.7 78.8,-109.7 101.3,-177.3 21.6,-68.4 33.8,-139.7 33.8,-215.7 z m -3397.9,0 c 0,76 10.3,147.3 33.8,215.7 21.6,67.6 56.3,127.6 101.3,177.3 45,50.6 100.3,90 166,121 67.5,29.1 144.4,44.1 229.8,44.1 106.9,0 203.5,-24.4 289.8,-73.2 87.2,-48.7 166,-113.5 233.5,-195 68.5,-81.6 128.5,-176.4 180.1,-285.2 50.6,-107.8 93.8,-221.3 128.5,-340.4 34.6,-120.1 63.7,-242 83.4,-367.7 20.7,-123.7 34.7,-243.8 40.3,-356.3 -44,-12.2 -93.8,-22.5 -147.2,-29.1 -55.3,-5.6 -117.2,-9.4 -185.7,-9.4 -143.5,0 -284.2,26.3 -423,77.9 -137.8,50.6 -261.6,123.7 -369.5,218.5 -107.8,95.7 -195,211 -260.7,345.1 -67.5,136 -100.4,287.9 -100.4,456.7 z M 15988,8166.5 c 109.8,0 229.8,-2.8 360.2,-7.5 130.3,-3.8 260.7,-10.3 391,-18.8 129.5,-7.5 255.1,-17.8 374.3,-30.9 120,-12.2 223.2,-26.3 308.5,-43.2 -91,-8.4 -199.7,-16.9 -325.4,-24.4 -126.7,-6.5 -255.1,-12.1 -386.4,-16.8 -133.2,-4.7 -262.6,-7.5 -391.1,-9.4 -127.6,-1.9 -240.1,-2.8 -336.7,-2.8 -97.6,0 -207.3,0.9 -328.2,2.8 -122.9,1.9 -248.6,4.7 -378,9.4 -129.5,4.7 -256,9.4 -380.8,15 -122.8,4.7 -236.3,12.2 -336.7,20.6 82.6,15 182.9,28.2 301.1,40.3 118.2,13.2 241,24.4 371.4,34.7 131.3,9.4 261.6,16.9 393.9,22.6 132.2,5.6 253.2,8.4 362.9,8.4 z m 0,447.3 c 109.8,0 229.8,-1.8 360.2,-6.5 130.3,-4.7 260.7,-11.3 391,-19.7 129.5,-7.5 255.1,-17.8 374.3,-30 120,-13.2 223.2,-27.2 308.5,-43.2 -91,-9.3 -199.7,-17.8 -325.4,-25.3 -126.7,-5.6 -255.1,-12.2 -386.4,-16.9 -133.2,-4.7 -262.6,-7.5 -391.1,-9.3 -127.6,-1.9 -240.1,-2.9 -336.7,-2.9 -97.6,0 -207.3,1 -328.2,2.9 -122.9,1.8 -248.6,4.6 -378,9.3 -129.5,4.7 -256,10.3 -380.8,14.1 -122.8,5.6 -236.3,13.1 -336.7,22.5 82.6,14.1 182.9,27.2 301.1,40.4 118.2,12.1 241,24.3 371.4,33.7 131.3,9.4 261.6,16.9 393.9,22.5 132.2,5.7 253.2,8.4 362.9,8.4 z m 0,428.7 c 109.8,0 229.8,-2.9 360.2,-6.6 130.3,-4.7 260.7,-10.3 391,-18.8 129.5,-8.4 255.1,-18.7 374.3,-31.9 120,-11.2 223.2,-26.2 308.5,-42.2 -91,-9.4 -199.7,-16.9 -325.4,-24.4 -126.7,-7.4 -255.1,-13.1 -386.4,-17.8 -133.2,-4.6 -262.6,-7.5 -391.1,-9.4 -127.6,-1.8 -240.1,-2.7 -336.7,-2.7 -97.6,0 -207.3,0.9 -328.2,2.7 -122.9,1.9 -248.6,4.8 -378,9.4 -129.5,4.7 -256,9.4 -380.8,15 -122.8,5.7 -236.3,13.2 -336.7,21.6 82.6,14.1 182.9,28.2 301.1,41.3 118.2,11.2 241,22.5 371.4,32.8 131.3,10.3 261.6,17.8 393.9,22.5 132.2,5.6 253.2,8.5 362.9,8.5 z m 78.8,3222.4 h -167.9 v -159.4 h -153.8 v -152.9 h 153.8 v -278.5 c -91,-134.1 -166,-282.3 -221.3,-444.6 -55.3,-162.2 -83.5,-339.5 -83.5,-533.6 -37.5,64.7 -82.5,125.7 -134.1,182.9 -52.5,58.1 -111.6,108.8 -176.3,152.8 -63.8,43.2 -135.1,78.8 -212,103.2 -77.8,26.3 -160.3,37.5 -248.5,37.5 -107.9,0 -207.3,-17.8 -298.2,-55.3 -90.1,-36.6 -169.8,-88.2 -236.4,-153.8 -65.6,-66.6 -117.2,-146.3 -153.8,-236.3 -37.5,-91 -55.3,-191.4 -55.3,-301.1 0,-120 16.8,-237.3 53.4,-350.8 35.7,-112.5 85.4,-217.5 148.2,-313.2 62.8,-96.6 138.8,-182.9 226,-257.9 88.2,-76 183.8,-136 286.1,-180.1 -28.2,-1.9 -61,-4.7 -99.4,-7.5 -37.5,-2.8 -76,-5.6 -114.4,-8.4 -39.4,-1.9 -76.9,-4.7 -114.5,-7.5 -37.5,-2.9 -73.1,-5.7 -103.1,-7.5 V 7847.6 c 266.3,-37.5 536.4,-65.6 811.2,-84.4 272.9,-19.7 545.9,-28.1 815,-28.1 270.1,0 534.6,8.4 795.3,28.1 260.8,18.8 533.7,46.9 820.6,84.4 v 1445.3 c -30.9,1.8 -65.6,4.6 -103.1,7.5 -38.5,2.8 -76,5.6 -114.4,7.5 -38.5,2.8 -76,5.6 -113.5,8.4 -36.6,2.8 -70.4,5.6 -101.3,7.5 102.2,44.1 197.9,104.1 287,180.1 87.2,75 162.2,161.3 226,257.9 62.9,95.7 112.5,200.7 148.2,313.2 35.6,113.5 53.5,230.8 53.5,350.8 0,109.7 -18.8,210.1 -55.4,301.1 -36.6,90 -88.2,169.7 -154.7,236.3 -66.6,65.6 -145.4,117.2 -236.4,153.8 -90,37.5 -189.4,55.3 -297.3,55.3 -88.1,0 -171.6,-11.2 -248.5,-37.5 -77.9,-24.4 -148.2,-60 -212.9,-103.2 -65.7,-44 -122.9,-94.7 -175.4,-152.8 -51.6,-57.2 -96.6,-118.2 -135,-182.9 0,194.1 -27.3,371.4 -83.5,533.6 -56.3,162.3 -129.4,310.5 -220.4,444.6 v 278.5 h 152.9 v 152.9 h -152.9 z m 112.5,-1626.2 c 0,-109.8 -7.4,-212 -21.5,-305.8 -14.1,-94.7 -31.9,-191.3 -50.7,-291.6 -20.6,-99.5 -40.3,-206.3 -60.9,-319.8 -21.6,-114.5 -38.5,-245.8 -52.5,-394.9 h -11.3 v 2129.9 c 43.1,-72.2 77.8,-145.4 104.1,-217.6 26.3,-73.1 46,-144.4 59.1,-214.8 14,-69.4 23.4,-137.8 27.2,-203.5 3.7,-64.7 6.5,-125.6 6.5,-181.9 v 0" style="fill:#100f0d;fill-opacity:1;fill-rule:evenodd;stroke:none" transform="matrix(0.13333332538604736, 0, 0, -0.13333332538604736, 0, 2666.666748046875)"/>
</svg>