<?xml version="1.0" encoding="utf-8"?>
<svg xmlns="http://www.w3.org/2000/svg" viewBox="1097.8411 1864.9068 399.0251 604.1066" width="399.025px" height="604.107px">
  <path id="path10" d="m 9822.53,5588.3 c 17.84,21.6 30.96,48.8 39.39,78.8 8.46,30.9 13.15,62.8 13.15,94.7 0,53.5 -12.18,98.5 -35.64,135.1 44.07,-22.5 79.71,-56.3 106.91,-99.4 27.21,-45 40.33,-92 40.33,-140.7 0,-25.3 -3.75,-49.7 -11.25,-73.2 -8.43,-23.4 -21.58,-46.9 -38.45,-66.6 z M 9499.92,2488.7 c -56.29,-55.3 -121.91,-98.5 -194.12,-131.3 -73.15,-31.9 -150.08,-57.2 -230.73,-76 -80.65,-17.8 -162.26,-30 -245.72,-35.6 -82.52,-5.6 -163.2,-8.5 -238.22,-8.5 -24.4,0 -47.82,0 -71.28,0 -23.42,0 -47.81,1 -69.4,2.9 l 125.69,116.3 c 52.5,7.5 120.03,14 201.64,17.8 82.52,3.7 167.85,10.3 256.97,17.8 88.14,7.5 173.5,19.7 256.02,35.6 82.56,16 149.11,39.4 199.78,71.3 z m 469.85,10.3 c 50.63,-31.9 117.23,-55.3 199.73,-71.3 82.6,-15.9 167.9,-28.1 256.1,-35.6 89.1,-7.5 174.4,-14.1 257,-17.8 81.5,-3.8 149.1,-10.3 201.6,-17.8 l 125.7,-116.3 c -21.6,-1.9 -45,-2.9 -68.5,-2.9 -23.4,0 -46.9,0 -71.3,0 -76.9,0 -155.6,2.9 -238.2,8.5 -83.5,5.6 -166,17.8 -245.7,35.6 -81.6,18.8 -158.5,44.1 -231.6,76 -71.3,32.8 -137,76 -194.2,131.3 z m 393.93,389.2 c -41.3,7.5 -85.4,15 -135.1,21.6 -48.8,6.6 -96.6,11.3 -142.5,14.1 l -51.6,417.3 c 41.3,-6.5 82.5,-13.1 122.9,-22.5 41.2,-8.4 77.8,-19.7 109.7,-31.9 z m 148.2,1692.9 c 0,12.1 0,28.1 0,46.8 0,17.9 -1.9,35.7 -5.7,53.5 h 12.2 c 22.5,-61 38.5,-121.9 48.8,-183.8 10.3,-63.8 15.9,-126.6 15.9,-191.4 0,-160.3 -30,-308.5 -89.1,-444.5 -59,-136 -139.7,-256 -241,-359.2 l -235.4,43.2 c 158.5,116.3 280.4,256.9 365.8,423.9 85.3,166.9 128.5,371.4 128.5,611.5 z m -862.88,202.5 v 412.7 h 162.27 v -412.7 h 389.21 v -154.7 h -389.21 v -914.4 h -162.27 v 914.4 h -389.2 v 154.7 z m 453.88,859.1 c 0,52.5 -9.3,101.3 -28.1,145.4 -19.7,45.9 -45.9,84.4 -78.76,117.2 -32.83,33.8 -72.22,60 -117.23,78.8 -45.94,18.8 -94.73,29.1 -148.17,29.1 -53.47,0 -103.16,-10.3 -149.11,-29.1 -45.04,-18.8 -83.49,-45 -117.25,-78.8 -32.83,-32.8 -59.1,-71.3 -78.78,-117.2 -18.77,-44.1 -28.14,-92.9 -28.14,-145.4 0,-68.5 17.84,-129.4 54.41,-182.8 -101.29,-73.2 -195.09,-150.1 -283.23,-230.8 -88.17,-80.7 -164.13,-167.9 -228.85,-260.7 -64.72,-93.8 -116.28,-196 -152.86,-304.8 -37.51,-110.7 -56.28,-230.7 -56.28,-360.1 0,-103.2 10.3,-198.9 31.89,-286.1 21.58,-88.1 47.81,-168.8 81.58,-241.9 32.83,-74.2 71.28,-140.8 113.48,-199.8 41.28,-59.1 83.48,-112.6 123.8,-160.4 l -175.37,-631.2 c 75.96,-49.7 166.94,-89.1 272.92,-119.1 105.97,-30 219.45,-51.6 339.48,-63.8 -66.56,-29 -137.83,-48.7 -214.77,-61.9 -75.95,-13.1 -156.6,-22.5 -238.18,-28.1 -82.56,-6.6 -166.01,-12.2 -250.44,-17.8 -85.33,-4.7 -167.85,-11.3 -248.53,-20.6 L 8233.81,2197 c 5.62,-83.4 22.52,-163.2 50.66,-235.4 28.11,-74.1 66.57,-142.5 113.48,-203.5 47.82,-61.9 104.1,-116.3 167.88,-163.2 63.75,-45.9 133.15,-84.4 210.08,-112.5 l 317.93,339.5 c -28.14,13.1 -60.97,27.2 -96.6,45 -35.64,17.8 -69.41,38.5 -102.24,61.9 -33.76,23.4 -63.77,51.6 -89.11,83.5 -26.23,31.9 -44.07,68.4 -53.44,108.8 113.48,6.5 215.7,17.8 305.72,32.8 90.05,16.9 174.48,41.2 251.38,75.9 77.83,33.8 150.04,78.9 216.63,136 66.59,56.3 133.19,131.3 198.84,223.2 h 10.31 c 66.59,-91.9 133.18,-166.9 198.83,-223.2 66.54,-57.1 138.84,-102.2 216.64,-136 76.9,-34.7 161.3,-59 251.3,-75.9 90.1,-15 192.3,-26.3 306.7,-32.8 -10.3,-40.4 -28.1,-76.9 -53.4,-108.8 -26.3,-31.9 -56.3,-60.1 -89.1,-83.5 -33.8,-23.4 -67.5,-44.1 -103.2,-61.9 -35.6,-17.8 -68.5,-31.9 -96.6,-45 l 318.9,-339.5 c 75,28.1 145.3,66.6 209.1,112.5 64.7,46.9 120,101.3 167.9,163.2 46.9,61 85.3,129.4 113.5,203.5 28.1,72.2 45.9,152 50.6,235.4 l -292.6,275.8 c -80.6,9.3 -163.2,15.9 -248.5,20.6 -83.5,5.6 -167,11.2 -250.4,17.8 -81.6,5.6 -161.4,15 -238.3,28.1 -76.9,13.2 -148.1,32.9 -215.66,61.9 120.96,12.2 234.46,33.8 340.46,63.8 106,30 196.9,69.4 272.9,119.1 l -175.4,631.2 c 40.3,47.8 82.6,101.3 123.8,160.4 42.2,59 80.7,125.6 113.5,199.8 33.8,73.1 60,153.8 82.5,241.9 20.7,87.2 31,182.9 31,286.1 0,129.4 -18.8,249.4 -55.3,360.1 -37.6,108.8 -89.2,211 -153.9,304.8 -64.7,92.8 -140.7,180 -227.9,260.7 -89.1,80.7 -182.8,157.6 -284.1,230.8 35.6,53.4 54.3,114.3 54.3,182.8 v 0" style="fill:#100f0d;fill-opacity:1;fill-rule:evenodd;stroke:none" transform="matrix(0.13333332538604736, 0, 0, -0.13333332538604736, 0, 2666.666748046875)"/>
</svg>