<?xml version="1.0" encoding="utf-8"?>
<svg xmlns="http://www.w3.org/2000/svg" viewBox="2753.0922 1864.9067 423.1606 604.1068" width="423.161px" height="604.107px">
  <path id="path14" d="m 21868.4,4118.7 c 0,52.5 32.8,77.8 100.3,77.8 h 532.7 c 65.7,0 100.4,-25.3 100.4,-77.8 z m 1000.7,-1716.3 c 63.8,0 95.7,-27.2 95.7,-78.8 h -1461.2 c 0,51.6 33.7,78.8 97.5,78.8 z m -480.2,1277.4 c 0,-197.9 18.8,-388.3 56.3,-572.1 37.5,-184.8 89.1,-348.9 156.6,-494.3 h -284.2 v 1218.3 h 71.3 z m 81.6,1693.8 c 0,54.3 -9.4,105 -28.1,152.8 -18.8,47.8 -44.1,91 -77,130.4 -31.9,38.4 -69.3,70.3 -112.5,95.7 -44.1,26.2 -91.9,43.1 -143.5,51.5 13.2,6.6 32.8,11.3 53.5,14.1 22.5,2.8 44.1,4.7 63.8,4.7 161.3,0 283.2,-45 368.5,-134.1 85.4,-90 127.6,-205.4 127.6,-348.9 0,-76.9 -15,-148.2 -44.1,-212.9 -28.1,-65.7 -69.4,-120 -121,-164.1 h -371.4 c 83.5,30.9 151,83.4 204.5,157.5 53.4,73.2 79.7,158.5 79.7,253.3 z m -1047.6,-794.4 c 0,54.4 16.9,96.6 49.7,126.6 33.8,30 83.5,45.9 150.1,45.9 h 1224.8 c 66.6,0 115.4,-15.9 149.1,-45.9 33.8,-30 50.7,-72.2 50.7,-126.6 z m 1788.5,-2538.8 c 93.8,0 168.8,-15.9 222.3,-46.9 55.3,-31.9 94.7,-75 117.2,-130.3 h -2631.6 c 22.5,55.3 60,98.4 114.4,130.3 54.4,31 128.5,46.9 224.2,46.9 z m 610.5,-558 v 112.5 c 0,105.1 -11.2,198.8 -33.7,279.5 -23.5,82.5 -58.2,150.1 -106.9,206.3 -49.7,56.3 -113.5,99.5 -190.4,127.6 -77.9,29 -172.6,44.1 -282.3,44.1 h -22.5 c 11.2,19.6 15.9,45.9 15.9,74.1 0,37.5 -6.6,74 -19.7,107.8 -14.1,33.8 -32.8,64.7 -60,90.1 -25.3,27.1 -59.1,47.8 -100.4,63.7 -42.2,16.9 -90.9,25.3 -147.2,25.3 h -17.8 c -54.4,96.6 -96.6,189.5 -130.4,283.3 -31.9,93.8 -56.2,184.7 -74.1,273.8 -17.8,88.2 -30,174.5 -36.5,258.9 -5.7,85.3 -8.5,167.8 -8.5,246.6 v 162.3 c 75,16.8 132.2,49.7 171.6,100.3 39.4,51.6 58.2,109.7 58.2,177.3 0,12.2 -0.9,25.3 -2.8,40.3 -1.9,15 -4.7,27.2 -8.4,40.3 h 17.8 c 145.3,0 254.1,35.7 327.3,109.7 72.2,72.3 108.7,163.3 108.7,273 0,106 -39.3,195.1 -118.1,264.5 -78.8,71.2 -188.5,110.6 -327.3,119.1 31.9,50.6 56.2,106.9 75,171.6 18.8,63.8 28.1,133.2 28.1,205.4 0,99.4 -17.8,190.4 -53.4,272.9 -34.7,82.5 -83.5,151.9 -145.4,212 -62.8,58.1 -136.9,105 -223.2,137.8 -86.3,32.9 -180.1,50.7 -282.3,50.7 -99.4,0 -192.3,-17.8 -278.5,-50.7 -86.3,-32.8 -160.4,-79.7 -223.3,-137.8 -61.8,-60.1 -110.6,-129.5 -145.3,-212 -36.6,-82.5 -53.5,-173.5 -53.5,-272.9 0,-72.2 9.4,-141.6 27.2,-205.4 19.7,-64.7 44.1,-121 75.1,-171.6 -138.8,-8.5 -247.7,-47.9 -326.4,-119.1 -78.8,-69.4 -118.2,-158.5 -118.2,-264.5 0,-109.7 35.7,-200.7 108.8,-273 72.2,-74 181,-109.7 327.3,-109.7 h 17.8 c -4.6,-13.1 -7.5,-25.3 -9.3,-40.3 -1,-15 -1.9,-28.1 -1.9,-40.3 0,-67.6 18.7,-125.7 58.1,-177.3 39.4,-50.6 96.6,-83.5 170.7,-100.3 V 3676 c 0,-78.8 -2.8,-161.3 -8.4,-246.6 -5.6,-84.4 -18.8,-170.7 -35.6,-258.9 -17.9,-89.1 -42.3,-180 -74.1,-273.8 -33.8,-93.8 -76,-186.7 -130.4,-283.3 h -18.8 c -55.3,0 -104.1,-8.4 -146.3,-25.3 -41.2,-15.9 -75,-36.6 -100.3,-63.7 -27.2,-25.4 -46,-56.3 -60,-90.1 -14.1,-33.8 -19.7,-70.3 -19.7,-107.8 0,-28.2 4.6,-54.5 14,-74.1 h -20.6 c -220.4,0 -378,-57.3 -472.7,-171.7 -94.7,-114.4 -140.7,-275.7 -140.7,-485.8 v -112.5 h 3173.7" style="fill:#100f0d;fill-opacity:1;fill-rule:evenodd;stroke:none" transform="matrix(0.13333332538604736, 0, 0, -0.13333332538604736, 0, 2666.666748046875)"/>
</svg>