<?xml version="1.0" encoding="utf-8"?>
<svg xmlns="http://www.w3.org/2000/svg" viewBox="1880.3865 1864.9067 501.3201 604.1067" width="501.32px" height="604.107px">
  <path id="path11" d="m 16733.6,4658.9 c 166.9,-279.5 292.6,-557.1 377,-830 83.5,-274.8 124.8,-561.8 124.8,-862.8 0,-90.1 -2.8,-179.2 -7.5,-264.5 -5.6,-86.3 -13.2,-172.6 -25.4,-258.9 -11.2,-87.2 -27.2,-174.4 -45.9,-264.4 -19.7,-89.1 -43.1,-182.9 -70.3,-280.4 h 343.2 c 27.2,125.6 47.8,246.6 60,364.8 11.3,120 16.9,233.5 16.9,346 0,158.6 -10.3,309.5 -31.9,453 -22.5,144.5 -51.6,278.6 -88.1,404.2 -37.6,124.8 -79.7,241.1 -125.7,348 -46,108.8 -93.8,207.3 -142.6,296.4 -112.5,207.2 -241,390.1 -384.5,548.6 z M 14992.9,1482.4 c -21.5,56.2 -42.1,121.9 -60,200.7 -17.8,77.8 -27.2,177.2 -27.2,301 0,151.9 29.1,287.9 83.5,409.9 56.3,121 125.7,231.6 210.1,332 83.4,100.3 174.4,194.1 272.9,281.3 98.5,86.3 189.4,170.7 273.8,253.3 83.5,82.5 152.9,165 208.2,250.4 55.4,83.4 84.5,172.5 84.5,271 -62.9,-61.9 -142.6,-115.4 -241.1,-160.4 -98.4,-45 -227.9,-70.3 -389.2,-78.7 -60,-43.2 -121,-79.8 -182.8,-110.7 -61.9,-30 -126.7,-55.3 -196.1,-77.9 -62.8,-69.4 -126.6,-124.7 -193.2,-167.9 -66.5,-43.1 -135,-63.7 -204.4,-63.7 -58.2,0 -111.6,9.4 -161.3,31.9 -49.7,21.5 -95.7,52.5 -137,90 -40.3,37.5 -75,81.6 -103.1,131.3 -29.1,49.7 -50.7,102.2 -64.7,158.5 -24.4,35.6 -40.4,75.1 -48.8,118.2 -9.4,42.2 -14.1,83.4 -14.1,122.9 0,32.8 10.3,65.6 30,100.3 19.7,35.6 44.1,67.5 71.3,100.3 28.1,31.9 57.2,59.1 87.2,83.5 29.1,23.5 56.3,42.2 76.9,53.5 67.6,90 128.5,166.9 181,233.5 52.6,64.7 105.1,125.7 155.7,182.9 49.7,57.2 103.2,113.5 157.6,169.7 55.3,54.4 121,118.2 196,187.6 -3.7,16 -5.6,30 -5.6,45 0,61.9 13.1,115.4 38.4,163.2 25.4,48.8 58.2,90 96.6,124.7 38.5,34.7 81.6,62.9 128.5,84.5 46.9,22.5 91.9,39.3 133.2,51.6 0,41.2 -0.9,81.5 -2.8,118.1 -7.5,132.3 50.6,116.3 57.2,196.9 5.6,76.9 7.5,102.3 -21.6,201.7 30,-15 63.8,-33.8 101.3,-58.1 38.5,-26.3 76,-54.4 115.4,-89.2 38.4,-33.7 75.9,-72.2 111.6,-116.3 35.6,-44 68.4,-90.9 95.6,-140.6 l 30,6.5 c 16,76 40.4,161.3 97.6,222.3 111.6,119.1 77.8,112.5 84.4,316.1 44.1,-40.4 88.2,-86.3 133.2,-136.9 44,-50.7 87.2,-107 128.4,-167.9 40.4,-62.9 78.8,-130.4 114.5,-205.5 35.6,-74 65.6,-154.7 90,-240 31.9,-40.3 66.6,-80.7 103.1,-122.9 36.6,-41.3 77,-86.3 121.1,-134.1 44,-47.8 90.9,-99.4 141.6,-154.7 50.6,-56.3 105.9,-118.2 165,-188.6 80.7,-92.8 164.1,-212.8 253.3,-360.1 88.1,-145.4 168.8,-306.7 241,-483 72.2,-176.3 134.1,-361.1 181,-554.2 47.8,-193.3 72.2,-382.7 72.2,-567.4 0,-121 -1.9,-228 -6.6,-320.8 -3.7,-92.8 -10.3,-182.9 -18.7,-272 -9.4,-89.1 -20.6,-181 -34.7,-279.5 -13.2,-97.5 -31,-211.9 -51.6,-343.2 z m 396.8,3269.3 c 35.6,0 75,3.8 116.3,9.4 42.2,6.6 83.4,16 125.6,30.1 41.3,14 81.6,30.9 118.2,50.6 36.6,20.6 68.5,44.1 93.8,71.3 -35.7,0 -77.9,3.7 -126.6,11.2 -48.8,7.5 -95.7,10.3 -141.6,10.3 -17.9,0 -38.5,-0.9 -62.9,-2.8 -23.4,-2.8 -45.9,-7.5 -65.6,-15.9 -20.7,-6.6 -36.6,-18.8 -50.6,-35.7 -14.1,-15 -21.6,-36.5 -21.6,-61.9 0,-18.7 4.6,-39.4 15,-66.6 z m -1012,-966.9 c 4.7,-27.2 13.2,-54.4 26.3,-77.8 15,-24.4 30,-42.2 45,-57.2 50.6,18.7 98.5,46.9 144.4,86.2 45,38.5 92.9,72.3 142.6,99.5 l -3.8,17.8 -354.5,-68.5" style="fill:#100f0d;fill-opacity:1;fill-rule:evenodd;stroke:none" transform="matrix(0.13333332538604736, 0, 0, -0.13333332538604736, 0, 2666.666748046875)"/>
</svg>