<?xml version="1.0" encoding="utf-8"?>
<svg xmlns="http://www.w3.org/2000/svg" viewBox="2662.693 1052.2267 603.9736 562.2136" width="603.974px" height="562.214px">
  <path id="path6" d="m 22240.7,8334.4 c 112.6,0 235.4,-2.8 369.5,-7.5 134.1,-3.8 267.3,-10.4 401.4,-18.8 132.3,-8.5 260.7,-18.8 383.6,-31.9 122.9,-12.2 228.8,-27.2 317,-44.1 -93.8,-8.4 -205.4,-16.8 -334.8,-24.3 -129.4,-7.5 -261.7,-14.1 -396.7,-18.8 -136,-4.7 -269.2,-7.5 -400.5,-9.4 -131.3,-1.9 -245.7,-2.8 -345.1,-2.8 -100.4,0 -212.9,0.9 -336.7,2.8 -125.7,1.9 -255.1,4.7 -388.3,9.4 -132.2,4.7 -262.6,10.3 -390.1,16 -126.6,5.6 -242.9,13.1 -346.1,21.5 85.3,15 188.5,29.1 309.5,41.3 121,13.1 246.7,24.3 380.8,34.7 134.1,10.3 268.2,17.8 404.2,23.4 135,5.7 259.8,8.5 372.3,8.5 z m 0,459.5 c 112.6,0 235.4,-1.8 369.5,-6.6 134.1,-4.6 267.3,-11.2 401.4,-19.6 132.3,-8.5 260.7,-19.8 383.6,-31.9 122.9,-13.1 228.8,-28.2 317,-44.1 -93.8,-9.4 -205.4,-17.8 -334.8,-25.3 -129.4,-6.6 -261.7,-13.1 -396.7,-17.9 -136,-4.6 -269.2,-7.5 -400.5,-9.3 -131.3,-1.9 -245.7,-2.9 -345.1,-2.9 -100.4,0 -212.9,1 -336.7,2.9 -125.7,1.8 -255.1,4.7 -388.3,9.3 -132.2,4.8 -262.6,10.4 -390.1,15.1 -126.6,5.6 -242.9,13.1 -346.1,22.5 85.3,14 188.5,28.1 309.5,41.2 121,12.2 246.7,24.4 380.8,34.7 134.1,10.3 268.2,17.8 404.2,23.5 135,5.6 259.8,8.4 372.3,8.4 z m 1471.5,702.4 c -18.8,1.9 -43.1,3.8 -75,4.8 -31,0.9 -64.7,1.8 -102.2,3.7 l 340.4,885.4 z m -3117.4,893.9 530.8,-879.8 c -25.3,-1.8 -56.3,-2.8 -92.9,-2.8 -35.6,0 -72.2,-0.9 -108.7,-2.8 z m -88.2,848.7 c 0,-42.2 -15.9,-77.8 -45,-106.9 -29.1,-31 -64.7,-45 -107.8,-45 -42.2,0 -77.9,14 -107,45 -30.9,29.1 -45,64.7 -45,106.9 0,43.2 14.1,78.8 45,107.9 29.1,29 64.8,44 107,44 43.1,0 78.7,-15 107.8,-44 29.1,-29.1 45,-64.7 45,-107.9 z m 2903.6,393 c 0,-42.2 -15,-77.9 -44.1,-107.9 -29,-30 -64.7,-44.1 -107.8,-44.1 -42.2,0 -77.8,14.1 -106.9,44.1 -31,30 -45,65.7 -45,107.9 0,42.2 14,78.8 45,107.8 29.1,29.1 64.7,44.1 106.9,44.1 43.1,0 78.8,-15 107.8,-44.1 29.1,-29 44.1,-65.6 44.1,-107.8 z m -990.4,181.9 c 0,-42.2 -14,-77.8 -44,-106.9 -29.1,-29.1 -65.7,-45 -107.9,-45 -42.2,0 -77.8,15.9 -107.9,45 -29,29.1 -44,64.7 -44,106.9 0,43.2 15,78.8 44,108.8 30.1,29.1 65.7,44.1 107.9,44.1 42.2,0 78.8,-15 107.9,-44.1 30,-30 44,-65.6 44,-108.8 z m -981.9,-181.9 c 0,-42.2 -14.1,-77.9 -44.1,-107.9 -29,-30 -65.6,-44.1 -107.8,-44.1 -42.2,0 -77.9,14.1 -107.9,44.1 -29,30 -44.1,65.7 -44.1,107.9 0,42.2 15.1,78.8 44.1,107.8 30,29.1 65.7,44.1 107.9,44.1 42.2,0 78.8,-15 107.8,-44.1 30,-29 44.1,-65.6 44.1,-107.8 z m 2899.9,-393 c 0,-42.2 -15,-77.8 -44.1,-106.9 -30,-31 -66.6,-45 -108.8,-45 -42.2,0 -78.8,14 -107.9,45 -29,29.1 -44,64.7 -44,106.9 0,43.2 15,78.8 44,107.9 29.1,29 65.7,44 107.9,44 42.2,0 78.8,-15 108.8,-44 29.1,-29.1 44.1,-64.7 44.1,-107.9 z m -1085.1,-1720 c -42.3,3.7 -85.4,5.6 -131.3,6.5 -45,1 -91,1.9 -139.8,3.8 l 154.8,1256.7 z m -1910.5,1268.9 417.4,-1250.2 c -18.8,0 -41.3,0 -66.6,-0.9 -26.3,-0.9 -51.6,-1.9 -76.9,-2.8 -27.2,-1 -51.6,-1.9 -74.1,-2.8 -22.5,-1 -41.2,-1.9 -56.3,-1.9 z m 892.9,341.4 357.3,-1591.6 c -61.9,1.9 -121.9,3.8 -182.9,4.7 -60.9,1 -119.1,1 -174.4,1 z m 5.6,-1895.4 c 112.6,0 235.4,-2.8 369.5,-6.6 134.1,-4.7 267.3,-11.2 401.4,-19.7 132.3,-8.4 260.7,-18.7 383.6,-31.9 122.9,-13.1 228.8,-28.1 317,-44.1 -93.8,-9.3 -205.4,-17.8 -334.8,-25.3 -129.4,-7.5 -261.7,-13.1 -396.7,-17.8 -136,-4.7 -269.2,-7.5 -400.5,-9.4 -131.3,-1.8 -245.7,-2.8 -345.1,-2.8 -100.4,0 -212.9,1 -336.7,2.8 -125.7,1.9 -255.1,4.7 -388.3,9.4 -132.2,4.7 -262.6,9.4 -390.1,15 -126.6,5.6 -242.9,13.1 -346.1,22.5 85.3,14.1 188.5,28.2 309.5,41.3 121,13.1 246.7,24.4 380.8,34.7 134.1,10.3 268.2,17.8 404.2,23.4 135,5.7 259.8,8.5 372.3,8.5 z m 342.3,2525.6 c 0,57.2 -10.3,106.9 -30,150.1 -20.6,43.1 -45.9,80.6 -78.8,109.7 -32.8,29.1 -68.4,51.6 -108.8,65.7 -40.3,15.9 -82.5,23.4 -124.7,23.4 -42.2,0 -85.3,-7.5 -127.5,-23.4 -42.2,-14.1 -79.8,-35.7 -113.5,-63.8 -32.8,-29.1 -60.1,-64.7 -80.7,-109.7 -21.5,-44.1 -32.8,-94.8 -32.8,-152 0,-92.8 23.4,-165 69.4,-218.5 46,-53.5 102.2,-90 166,-110.7 l -315.1,-1393.6 -437.1,1216.4 c 69.4,22.5 126.7,62.8 168.9,120 42.2,59.1 62.8,125.7 62.8,203.5 0,57.3 -10.3,108.8 -31.9,152.9 -20.6,43.2 -47.8,79.7 -81.6,110.7 -35.6,29.1 -73.1,50.6 -114.4,65.6 -42.2,15 -83.5,21.6 -125.7,21.6 -42.2,0 -85.3,-6.6 -127.5,-21.6 -42.2,-15 -80.7,-36.5 -113.5,-65.6 -32.8,-31 -59.1,-67.5 -79.7,-110.7 -20.6,-44.1 -31,-95.6 -31,-152.9 0,-41.2 6.6,-80.6 20.7,-119.1 15,-38.4 34.7,-73.1 60,-103.1 25.3,-31 57.2,-56.3 94.7,-77.9 36.6,-21.5 77.9,-34.7 122.9,-40.3 l -115.4,-1253 -584.3,893.8 c 54.4,29.1 96.6,71.3 127.6,125.7 31.9,54.4 47.8,114.4 47.8,181 0,57.2 -10.3,107.8 -32.8,151 -20.7,43.1 -47.8,79.7 -80.7,109.7 -32.8,29.1 -72.2,50.6 -113.5,65.6 -42.2,15.1 -85.3,21.6 -127.5,21.6 -42.2,0 -84.4,-6.5 -126.6,-21.6 -40.4,-15 -77.9,-36.5 -110.7,-65.6 -31.9,-30 -58.1,-66.6 -77.8,-109.7 -20.7,-43.2 -30,-93.8 -30,-151 0,-43.2 7.5,-87.2 22.5,-128.5 15.9,-41.3 38.4,-78.8 67.5,-110.7 30,-31.9 66.6,-57.2 107.9,-75.9 42.2,-17.9 90.9,-28.2 144.4,-28.2 h 46.9 l 229.8,-1509.9 V 7999.6 c 267.2,-36.6 543,-63.8 828.1,-80.7 285.1,-18.8 559.9,-27.2 823.4,-27.2 271.1,0 546.8,8.4 827.2,27.2 280.4,16.9 553.3,44.1 818.8,80.7 v 1330.8 l 223.2,1509.9 h 47.8 c 53.5,0 101.3,10.3 143.5,28.2 42.2,18.7 77.8,44 108.8,75.9 29.1,31.9 51.6,69.4 66.6,110.7 15.9,41.3 23.4,85.3 23.4,128.5 0,57.2 -9.4,107.8 -30,151 -19.7,43.1 -46,79.7 -78.8,109.7 -32.8,29.1 -69.4,50.6 -110.7,65.6 -41.2,15.1 -83.4,21.6 -125.6,21.6 -43.2,0 -85.4,-6.5 -127.6,-21.6 -42.2,-15 -80.6,-36.5 -113.4,-65.6 -32.9,-30 -60.1,-66.6 -81.7,-109.7 -21.5,-43.2 -31.8,-93.8 -31.8,-151 0,-66.6 15.9,-126.6 47.8,-181 31,-54.4 73.2,-96.6 126.6,-125.7 l -583.3,-893.8 -116.3,1253 c 45.9,5.6 87.2,18.8 123.8,40.3 37.5,21.6 69.4,46.9 94.7,77.9 25.3,30 45,64.7 59.1,103.1 15,38.5 21.6,77.9 21.6,119.1 0,57.3 -11.3,108.8 -31,152.9 -20.6,43.2 -46.9,79.7 -79.7,110.7 -32.8,29.1 -71.3,50.6 -113.5,65.6 -42.2,15 -85.3,21.6 -127.5,21.6 -40.4,0 -82.6,-6.6 -124.8,-21.6 -42.2,-15 -79.7,-36.5 -115.3,-65.6 -33.8,-31 -61,-67.5 -81.6,-110.7 -21.6,-44.1 -31.9,-95.6 -31.9,-152.9 0,-77.8 20.6,-144.4 62.8,-203.5 42.2,-57.2 99.4,-97.5 168.8,-120 l -437,-1216.4 -315.1,1393.6 c 63.8,20.7 120,57.2 166,110.7 45.9,53.5 68.4,125.7 68.4,218.5 v 0" style="fill:#100f0d;fill-opacity:1;fill-rule:evenodd;stroke:none" transform="matrix(0.13333332538604736, 0, 0, -0.13333332538604736, 0, 2666.666748046875)"/>
</svg>