<?xml version="1.0" encoding="utf-8"?>
<svg xmlns="http://www.w3.org/2000/svg" viewBox="1085.7104 1031.3474 423.2898 603.9729" width="423.29px" height="603.973px">
  <path d="M 9363.92 10371.4 c 0 -50.7 33.77 -76 100.36 -76 h 532.69 c 66.63 0 99.43 25.3 99.43 76 c 0 51.6 -32.8 76.9 -99.43 76.9 h -532.69 c -66.59 0 -100.36 -25.3 -100.36 -76.9 Z" style="fill:#ffffff;fill-opacity:1;fill-rule:nonzero;stroke:none" transform="matrix(0.13333332538604736, 0, 0, -0.13333332538604736, 0, 2666.666748046875)"/>
  <path d="M 10364.6 8505.1 c 63.8 0 96.6 23.4 96.6 71.2 c 0 51.6 -32.8 78.8 -96.6 78.8 H 9095.72 c -63.79 0 -95.68 -27.2 -95.68 -78.8 c 0 -47.8 31.89 -71.2 95.68 -71.2 Z" style="fill:#ffffff;fill-opacity:1;fill-rule:nonzero;stroke:none" transform="matrix(0.13333332538604736, 0, 0, -0.13333332538604736, 0, 2666.666748046875)"/>
  <path d="M 9576.81 9931.5 c 0 -197.9 -19.67 -388.2 -56.25 -572 c -37.51 -183.9 -90.05 -348.9 -156.64 -493.4 h 732.48 c -66.6 144.5 -119.11 309.5 -155.68 493.4 c -37.51 183.8 -55.34 374.1 -55.34 572 v 152.9 h -308.57 Z" style="fill:#ffffff;fill-opacity:1;fill-rule:nonzero;stroke:none" transform="matrix(0.13333332538604736, 0, 0, -0.13333332538604736, 0, 2666.666748046875)"/>
  <path d="M 8918.46 10831.9 c 0 -53.5 16.87 -95.7 49.69 -127.6 c 33.77 -30.9 83.46 -46.9 150.05 -46.9 h 1223.9 c 67.5 0 117.2 16 150.1 46.9 c 32.8 31.9 49.7 74.1 49.7 127.6 c 0 54.4 -16.9 96.6 -49.7 126.6 c -32.9 29.1 -82.6 45 -150.1 45 H 9118.2 c -66.59 0 -116.28 -15.9 -150.05 -45 c -32.82 -30 -49.69 -72.2 -49.69 -126.6 Z" style="fill:#ffffff;fill-opacity:1;fill-rule:nonzero;stroke:none" transform="matrix(0.13333332538604736, 0, 0, -0.13333332538604736, 0, 2666.666748046875)"/>
  <path d="M 9242.95 11591.6 c 0 -76 14.99 -147.3 43.14 -212 c 29.08 -66.6 70.34 -120 120.97 -164.1 h 646.24 c 51.5 44.1 91.9 97.5 120.9 164.1 c 29.1 64.7 44.1 136 44.1 212 c 0 71.2 -12.2 135 -34.7 194.1 c -23.4 58.1 -54.4 107.8 -95.6 151 c -40.4 42.2 -89.15 75 -147.28 97.5 c -58.16 23.5 -121.94 35.7 -189.47 35.7 h -42.19 c -67.53 0 -131.31 -12.2 -188.5 -35.7 c -59.1 -22.5 -107.85 -55.3 -148.21 -97.5 c -40.32 -43.2 -72.17 -92.9 -95.63 -151 c -22.52 -59.1 -33.77 -122.9 -33.77 -194.1 Z" style="fill:#ffffff;fill-opacity:1;fill-rule:nonzero;stroke:none" transform="matrix(0.13333332538604736, 0, 0, -0.13333332538604736, 0, 2666.666748046875)"/>
  <path d="M 8753.39 8293.1 c -135.06 0 -229.79 -30.9 -284.17 -92.8 c -52.53 -60.1 -82.55 -143.6 -87.23 -247.7 h 2696.31 c -4.7 104.1 -33.7 187.6 -87.2 247.7 c -54.4 61.9 -149.1 92.8 -284.1 92.8 Z" style="fill:#ffffff;fill-opacity:1;fill-rule:nonzero;stroke:none" transform="matrix(0.13333332538604736, 0, 0, -0.13333332538604736, 0, 2666.666748046875)"/>
  <path d="M 8142.83 7735.1 v 112.5 c 0 105 12.21 198.8 33.76 279.5 c 23.46 81.6 59.09 150.1 107.88 206.3 c 48.76 56.3 112.54 99.4 190.37 127.6 c 77.84 29 172.57 44.1 281.36 44.1 h 22.49 c -10.31 19.7 -15.93 44.9 -15.93 74 c 0 37.6 6.56 73.2 20.65 107.9 c 14.05 33.8 32.83 64.7 59.06 90 c 26.27 26.3 60.03 47.9 101.29 63.8 c 41.26 16.9 90.05 25.3 147.24 25.3 h 17.83 c 54.41 95.7 96.61 189.5 129.44 283.3 c 31.89 93.8 56.25 184.7 75.02 272.9 c 17.8 88.1 29.08 174.4 35.64 259.8 c 6.56 85.3 8.43 167.9 8.43 246.6 v 161.3 c -74.08 16.9 -131.31 50.7 -170.69 101.3 c -39.38 50.7 -59.1 109.8 -59.1 176.3 c 0 13.2 0.97 26.3 3.78 40.4 c 1.88 15 3.75 28.1 8.44 40.3 h -18.77 c -145.37 0 -254.15 36.6 -327.31 109.7 c -72.21 72.2 -107.85 164.2 -107.85 273.9 c 0 106 38.45 194.1 117.23 264.5 c 78.8 71.2 188.52 110.6 328.26 119.1 c -31.89 49.7 -56.28 105.9 -75.96 171.6 c -17.83 63.8 -27.2 132.2 -27.2 204.5 c 0 100.3 17.8 190.3 52.5 273.8 c 35.64 81.6 83.46 151.9 145.36 212 c 60.97 58.1 132.25 105 216.67 137.8 c 82.52 32.8 172.54 49.7 266.34 49.7 h 42.19 c 94.74 0 183.85 -16.9 267.35 -49.7 c 83.4 -32.8 155.6 -79.7 216.6 -137.8 c 61 -60.1 108.8 -130.4 144.4 -212 c 35.7 -83.5 53.5 -173.5 53.5 -273.8 c 0 -72.3 -10.3 -140.7 -28.1 -204.5 c -18.8 -65.7 -43.2 -121.9 -74.1 -171.6 c 137.8 -8.5 247.6 -47.9 326.3 -119.1 c 78.8 -70.4 118.2 -158.5 118.2 -264.5 c 0 -109.7 -36.6 -201.7 -108.8 -273.9 c -72.2 -73.1 -181.9 -109.7 -327.3 -109.7 h -17.8 c 3.7 -12.2 6.6 -25.3 9.4 -40.3 c 0.9 -14.1 1.8 -27.2 1.8 -40.4 c 0 -66.5 -18.7 -125.6 -58.1 -176.3 c -39.4 -50.6 -97.5 -84.4 -171.7 -101.3 v -161.3 c 0 -78.7 2.9 -161.3 8.5 -246.6 c 6.6 -85.4 19.7 -171.7 36.6 -259.8 c 17.8 -88.2 42.2 -179.1 74.1 -272.9 c 32.8 -93.8 75.9 -187.6 129.4 -283.3 h 19.7 c 55.3 0 104.1 -8.4 145.4 -25.3 c 41.2 -15.9 75.9 -37.5 101.2 -63.8 c 26.3 -25.3 46 -56.2 59.1 -90 c 14.1 -34.7 20.7 -70.3 20.7 -107.9 c 0 -29.1 -5.7 -54.3 -15 -74 h 21.5 c 219.5 0 377 -58.2 471.8 -171.7 c 94.7 -114.4 141.6 -276.7 141.6 -485.8 V 7735.1 H 8142.83" style="fill:#ffffff;fill-opacity:1;fill-rule:nonzero;stroke:none" transform="matrix(0.13333332538604736, 0, 0, -0.13333332538604736, 0, 2666.666748046875)"/>
  <path d="m 9363.92,10371.4 c 0,-50.7 33.77,-76 100.36,-76 h 532.69 c 66.63,0 99.43,25.3 99.43,76 0,51.6 -32.8,76.9 -99.43,76.9 h -532.69 c -66.59,0 -100.36,-25.3 -100.36,-76.9 z M 10364.6,8505.1 c 63.8,0 96.6,23.4 96.6,71.2 0,51.6 -32.8,78.8 -96.6,78.8 H 9095.72 c -63.79,0 -95.68,-27.2 -95.68,-78.8 0,-47.8 31.89,-71.2 95.68,-71.2 z m -787.79,1426.4 c 0,-197.9 -19.67,-388.2 -56.25,-572 -37.51,-183.9 -90.05,-348.9 -156.64,-493.4 h 732.48 c -66.6,144.5 -119.11,309.5 -155.68,493.4 -37.51,183.8 -55.34,374.1 -55.34,572 v 152.9 h -308.57 z m -658.35,900.4 c 0,-53.5 16.87,-95.7 49.69,-127.6 33.77,-30.9 83.46,-46.9 150.05,-46.9 h 1223.9 c 67.5,0 117.2,16 150.1,46.9 32.8,31.9 49.7,74.1 49.7,127.6 0,54.4 -16.9,96.6 -49.7,126.6 -32.9,29.1 -82.6,45 -150.1,45 H 9118.2 c -66.59,0 -116.28,-15.9 -150.05,-45 -32.82,-30 -49.69,-72.2 -49.69,-126.6 z m 324.49,759.7 c 0,-76 14.99,-147.3 43.14,-212 29.08,-66.6 70.34,-120 120.97,-164.1 h 646.24 c 51.5,44.1 91.9,97.5 120.9,164.1 29.1,64.7 44.1,136 44.1,212 0,71.2 -12.2,135 -34.7,194.1 -23.4,58.1 -54.4,107.8 -95.6,151 -40.4,42.2 -89.15,75 -147.28,97.5 -58.16,23.5 -121.94,35.7 -189.47,35.7 h -42.19 c -67.53,0 -131.31,-12.2 -188.5,-35.7 -59.1,-22.5 -107.85,-55.3 -148.21,-97.5 -40.32,-43.2 -72.17,-92.9 -95.63,-151 -22.52,-59.1 -33.77,-122.9 -33.77,-194.1 z M 8753.39,8293.1 c -135.06,0 -229.79,-30.9 -284.17,-92.8 -52.53,-60.1 -82.55,-143.6 -87.23,-247.7 h 2696.31 c -4.7,104.1 -33.7,187.6 -87.2,247.7 -54.4,61.9 -149.1,92.8 -284.1,92.8 z m -610.56,-558 v 112.5 c 0,105 12.21,198.8 33.76,279.5 23.46,81.6 59.09,150.1 107.88,206.3 48.76,56.3 112.54,99.4 190.37,127.6 77.84,29 172.57,44.1 281.36,44.1 h 22.49 c -10.31,19.7 -15.93,44.9 -15.93,74 0,37.6 6.56,73.2 20.65,107.9 14.05,33.8 32.83,64.7 59.06,90 26.27,26.3 60.03,47.9 101.29,63.8 41.26,16.9 90.05,25.3 147.24,25.3 h 17.83 c 54.41,95.7 96.61,189.5 129.44,283.3 31.89,93.8 56.25,184.7 75.02,272.9 17.8,88.1 29.08,174.4 35.64,259.8 6.56,85.3 8.43,167.9 8.43,246.6 v 161.3 c -74.08,16.9 -131.31,50.7 -170.69,101.3 -39.38,50.7 -59.1,109.8 -59.1,176.3 0,13.2 0.97,26.3 3.78,40.4 1.88,15 3.75,28.1 8.44,40.3 h -18.77 c -145.37,0 -254.15,36.6 -327.31,109.7 -72.21,72.2 -107.85,164.2 -107.85,273.9 0,106 38.45,194.1 117.23,264.5 78.8,71.2 188.52,110.6 328.26,119.1 -31.89,49.7 -56.28,105.9 -75.96,171.6 -17.83,63.8 -27.2,132.2 -27.2,204.5 0,100.3 17.8,190.3 52.5,273.8 35.64,81.6 83.46,151.9 145.36,212 60.97,58.1 132.25,105 216.67,137.8 82.52,32.8 172.54,49.7 266.34,49.7 h 42.19 c 94.74,0 183.85,-16.9 267.35,-49.7 83.4,-32.8 155.6,-79.7 216.6,-137.8 61,-60.1 108.8,-130.4 144.4,-212 35.7,-83.5 53.5,-173.5 53.5,-273.8 0,-72.3 -10.3,-140.7 -28.1,-204.5 -18.8,-65.7 -43.2,-121.9 -74.1,-171.6 137.8,-8.5 247.6,-47.9 326.3,-119.1 78.8,-70.4 118.2,-158.5 118.2,-264.5 0,-109.7 -36.6,-201.7 -108.8,-273.9 -72.2,-73.1 -181.9,-109.7 -327.3,-109.7 h -17.8 c 3.7,-12.2 6.6,-25.3 9.4,-40.3 0.9,-14.1 1.8,-27.2 1.8,-40.4 0,-66.5 -18.7,-125.6 -58.1,-176.3 -39.4,-50.6 -97.5,-84.4 -171.7,-101.3 v -161.3 c 0,-78.7 2.9,-161.3 8.5,-246.6 6.6,-85.4 19.7,-171.7 36.6,-259.8 17.8,-88.2 42.2,-179.1 74.1,-272.9 32.8,-93.8 75.9,-187.6 129.4,-283.3 h 19.7 c 55.3,0 104.1,-8.4 145.4,-25.3 41.2,-15.9 75.9,-37.5 101.2,-63.8 26.3,-25.3 46,-56.2 59.1,-90 14.1,-34.7 20.7,-70.3 20.7,-107.9 0,-29.1 -5.7,-54.3 -15,-74 h 21.5 c 219.5,0 377,-58.2 471.8,-171.7 94.7,-114.4 141.6,-276.7 141.6,-485.8 V 7735.1 H 8142.83" style="fill:#100f0d;fill-opacity:1;fill-rule:evenodd;stroke:none" transform="matrix(0.13333332538604736, 0, 0, -0.13333332538604736, 0, 2666.666748046875)"/>
</svg>
