<?xml version="1.0" encoding="utf-8"?>
<svg xmlns="http://www.w3.org/2000/svg" viewBox="995.3025 218.6541 604.097 562.0931" width="604.097px" height="562.093px">
  <path d="M 9381.76 18012.1 c 0 56.3 10.31 106.9 30.01 150.1 c 20.62 43.1 46.88 79.7 79.71 109.7 c 31.89 29.1 67.53 51.6 108.79 65.7 c 40.33 15 81.59 22.5 124.75 22.5 c 42.2 0 84.39 -7.5 126.59 -22.5 c 43.14 -14.1 80.68 -35.7 113.47 -63.8 c 33.77 -30 61.02 -65.7 81.62 -109.7 c 21.6 -44.1 31.9 -95.7 31.9 -152 c 0 -92.8 -22.5 -165 -68.5 -219.4 c -46.89 -52.6 -102.2 -89.1 -166.92 -110.7 l 316.02 -1393.7 l 437.1 1217.4 c -70.4 21.6 -126.6 62.8 -168.8 120 c -43.2 58.2 -63.8 125.7 -63.8 202.6 c 0 58.1 10.3 108.8 31.9 153.8 c 21.5 43.1 48.7 79.7 82.5 109.7 c 34.7 30.1 73.2 51.6 114.4 66.6 c 41.3 15 82.6 21.6 125.7 21.6 c 42.2 0 84.4 -6.6 127.6 -21.6 c 42.2 -15 79.7 -36.5 112.5 -66.6 c 33.8 -30 60 -66.6 80.6 -109.7 c 19.8 -45 30.1 -95.7 30.1 -153.8 c 0 -40.3 -6.6 -79.7 -20.7 -118.2 c -14 -39.4 -33.8 -73.1 -59.1 -103.1 c -26.2 -31 -58.1 -57.2 -94.7 -78.8 c -36.6 -20.6 -78.8 -33.8 -123.8 -39.4 l 116.3 -1253 l 583.3 892.9 c -53.4 30 -96.5 72.2 -127.5 125.6 c -30.9 55.4 -46.9 115.4 -46.9 182 c 0 57.2 10.3 106.9 31.9 151 c 20.6 43.1 47.8 78.8 81.6 108.8 c 32.8 30 71.3 51.5 112.5 66.5 c 43.2 15.1 85.4 21.6 127.6 21.6 c 43.1 0 85.3 -6.5 126.6 -21.6 c 41.3 -15 78.8 -36.5 110.7 -66.5 c 31.8 -30 59.1 -65.7 78.8 -108.8 c 20.6 -44.1 29.9 -93.8 29.9 -151 c 0 -44.1 -7.4 -87.2 -22.4 -128.5 c -16 -42.2 -39.4 -78.8 -68.5 -110.7 c -29.1 -31.9 -65.7 -58.1 -107.9 -76.9 c -42.2 -17.8 -90 -27.2 -144.4 -27.2 h -46.9 l -229.8 -1510.9 v -1329.8 c -266.3 -37.6 -542.1 -64.8 -828.1 -81.6 c -285.1 -17.9 -559.9 -26.3 -822.48 -26.3 c -271.05 0 -546.78 8.4 -827.2 26.3 c -280.42 16.8 -553.35 44 -818.74 81.6 v 1329.8 L 7854.91 17093 h -46.88 c -54.41 0 -102.23 9.4 -143.49 27.2 c -43.13 18.8 -78.8 45 -108.79 76.9 c -29.08 31.9 -51.59 68.5 -66.59 110.7 c -16.89 41.3 -24.39 84.4 -24.39 128.5 c 0 57.2 9.37 106.9 30.95 151 c 19.71 43.1 45.95 78.8 77.83 108.8 c 32.83 30 70.35 51.5 111.61 66.5 c 40.35 15.1 83.48 21.6 125.68 21.6 c 42.2 0 84.39 -6.5 127.56 -21.6 c 42.2 -15 79.71 -36.5 113.48 -66.5 c 32.82 -30 60 -65.7 80.64 -108.8 c 21.58 -44.1 31.89 -93.8 31.89 -151 c 0 -66.6 -15.93 -126.6 -46.88 -182 c -30.96 -53.4 -74.09 -95.6 -127.56 -125.6 l 583.36 -892.9 l 116.28 1253 c -45.01 5.6 -86.3 18.8 -123.78 39.4 c -36.61 21.6 -68.5 47.8 -93.79 78.8 c -26.27 30 -45.99 63.7 -60.04 103.1 c -14.05 38.5 -20.64 77.9 -20.64 118.2 c 0 58.1 10.33 108.8 30.01 153.8 c 20.65 43.1 47.85 79.7 80.68 109.7 c 32.83 30.1 70.34 51.6 113.47 66.6 c 42.2 15 84.4 21.6 127.57 21.6 c 40.32 0 81.58 -6.6 123.78 -21.6 c 43.13 -15 80.64 -36.5 115.34 -66.6 c 33.77 -30 61.91 -66.6 82.55 -109.7 c 21.55 -45 31.89 -95.7 31.89 -153.8 c 0 -76.9 -20.64 -144.4 -62.84 -202.6 c -43.14 -57.2 -99.42 -98.4 -169.76 -120 l 438 -1217.4 l 315.09 1393.7 c -64.69 21.6 -120.04 58.1 -165.98 110.7 c -46.92 54.4 -69.4 126.6 -69.4 219.4 Z" style="fill:#ffffff;fill-opacity:1;fill-rule:nonzero;stroke:none" transform="matrix(0.13333332538604736, 0, 0, -0.13333332538604736, 0, 2666.666748046875)"/>
  <path d="M 8269.45 15256.7 c 105.04 5.6 219.45 9.4 342.33 13.1 c 121.9 3.8 246.65 6.6 374.21 8.5 c 127.53 1.9 254.15 3.7 380.74 4.7 c 126.62 0.9 245.72 0.9 358.29 0.9 c 109.73 0 228.82 0 356.38 -0.9 c 127.5 -1 256 -2.8 384.5 -4.7 c 129.4 -1.9 256 -4.7 380.8 -8.5 c 124.7 -3.7 239.1 -7.5 344.2 -13.1 v 323.6 c -112.6 4.6 -231.7 10.3 -356.4 15.9 c -125.7 5.6 -252.3 9.4 -378.9 12.2 c -127.5 3.7 -253.2 6.6 -377.9 8.4 c -124.8 1.9 -242.95 2.8 -352.68 2.8 c -108.79 0 -225.1 -0.9 -347.01 -2.8 c -122.88 -1.8 -248.53 -4.7 -375.15 -8.4 c -127.56 -2.8 -253.22 -6.6 -377.03 -12.2 c -124.72 -5.6 -243.84 -11.3 -356.38 -15.9 Z" style="fill:#ffffff;fill-opacity:1;fill-rule:nonzero;stroke:none" transform="matrix(0.13333332538604736, 0, 0, -0.13333332538604736, 0, 2666.666748046875)"/>
  <path d="M 9725.02 14822.5 c 111.6 0 231.63 0 359.18 0.9 c 127.6 1 255.1 1.9 383.6 2.8 c 128.5 1 254.1 2.8 378.9 5.7 c 124.7 2.8 239.1 5.6 344.2 9.3 v 229.8 c -105.1 3.8 -219.5 7.5 -344.2 11.3 c -124.8 3.7 -250.4 6.5 -378.9 8.4 c -128.5 1.9 -256 2.8 -383.6 3.7 c -127.55 1 -247.58 1.9 -359.18 1.9 c -110.69 0 -228.85 -0.9 -355.47 -1.9 c -126.6 -0.9 -254.16 -1.8 -382.66 -3.7 c -127.52 -1.9 -253.21 -4.7 -375.11 -8.4 c -122.88 -3.8 -237.29 -7.5 -342.33 -11.3 v -229.8 c 105.04 -3.7 219.45 -6.5 342.33 -9.3 c 121.9 -2.9 247.59 -4.7 375.11 -5.7 c 128.5 -0.9 256.06 -1.8 382.66 -2.8 c 126.62 -0.9 244.78 -0.9 355.47 -0.9 Z" style="fill:#ffffff;fill-opacity:1;fill-rule:nonzero;stroke:none" transform="matrix(0.13333332538604736, 0, 0, -0.13333332538604736, 0, 2666.666748046875)"/>
  <path d="M 9725.02 14346 c 111.6 0 232.57 1.9 361.98 6.6 c 129.5 4.7 258.9 12.2 389.2 20.6 c 129.5 8.5 257 17.9 379.9 28.2 c 123.7 11.2 234.4 24.4 334.8 39.4 v 207.2 c -105.1 -5.6 -219.5 -10.3 -344.2 -14 c -124.8 -3.8 -250.4 -7.6 -378.9 -10.4 c -128.5 -2.8 -256 -4.6 -383.6 -5.6 c -127.55 -0.9 -247.58 -0.9 -359.18 -0.9 c -110.69 0 -228.85 0 -355.47 0.9 c -126.6 1 -253.22 2.8 -380.78 5.6 c -127.53 2.8 -253.21 6.6 -376.06 10.4 c -122.87 3.7 -238.22 8.4 -343.26 14 v -207.2 c 100.35 -15 211.02 -28.2 333.86 -39.4 c 121.94 -10.3 248.56 -19.7 378.9 -28.2 c 129.44 -8.4 257.93 -15.9 385.46 -20.6 c 127.56 -4.7 246.66 -6.6 357.35 -6.6 Z" style="fill:#ffffff;fill-opacity:1;fill-rule:nonzero;stroke:none" transform="matrix(0.13333332538604736, 0, 0, -0.13333332538604736, 0, 2666.666748046875)"/>
  <path d="M 9725.02 15796 c 59.06 0 118.16 0 180.06 -1 c 60 -0.9 121.02 -2.8 181.92 -4.7 l -356.36 1590.6 l -357.31 -1590.6 c 60.93 1.9 120.96 3.8 180.06 4.7 c 59.06 1 116.28 1 171.63 1 Z" style="fill:#ffffff;fill-opacity:1;fill-rule:nonzero;stroke:none" transform="matrix(0.13333332538604736, 0, 0, -0.13333332538604736, 0, 2666.666748046875)"/>
  <path d="M 8712.13 15771.6 c 85.33 3.7 174.44 6.5 267.27 9.3 c 92.86 2.9 184.75 5.7 274.8 9.4 l -425.79 1248.3 Z" style="fill:#ffffff;fill-opacity:1;fill-rule:nonzero;stroke:none" transform="matrix(0.13333332538604736, 0, 0, -0.13333332538604736, 0, 2666.666748046875)"/>
  <path d="M 10623.5 17040.5 l -417.4 -1250.2 c 91 -3.7 182 -6.5 274.8 -9.4 c 93.8 -2.8 182 -5.6 267.3 -9.3 Z" style="fill:#ffffff;fill-opacity:1;fill-rule:nonzero;stroke:none" transform="matrix(0.13333332538604736, 0, 0, -0.13333332538604736, 0, 2666.666748046875)"/>
  <path d="M 8253.52 15748.1 c 17.8 2.8 42.2 4.7 75.02 5.7 c 30.96 0.9 63.78 1.8 98.49 3.7 c 35.6 1.9 70.3 2.8 104.1 3.8 c 33.73 0.9 63.75 1.8 90.01 1.8 l -530.82 879.7 Z" style="fill:#ffffff;fill-opacity:1;fill-rule:nonzero;stroke:none" transform="matrix(0.13333332538604736, 0, 0, -0.13333332538604736, 0, 2666.666748046875)"/>
  <path d="M 11370 16642.8 l -529.9 -879.7 c 23.5 0 52.5 -0.9 88.2 -1.8 c 34.7 -1 70.3 -1.9 105 -3.8 c 34.7 -1.9 67.5 -2.8 99.4 -3.7 c 31.9 -1 56.3 -2.9 75.1 -5.7 Z" style="fill:#ffffff;fill-opacity:1;fill-rule:nonzero;stroke:none" transform="matrix(0.13333332538604736, 0, 0, -0.13333332538604736, 0, 2666.666748046875)"/>
  <path d="M 9563.7 18012.1 c 0 -54.4 16.86 -95.6 47.81 -124.7 c 30.96 -29.1 68.47 -44.1 113.51 -44.1 c 47.82 0 88.14 14.1 120.97 42.2 c 33.76 29.1 50.63 70.3 50.63 126.6 c 0 52.5 -16.87 93.8 -50.63 124.8 c -32.83 29 -73.15 43.1 -120.97 43.1 c -46.91 0 -84.42 -14.1 -114.44 -43.1 c -30.96 -31 -46.88 -72.3 -46.88 -124.8 Z" style="fill:#ffffff;fill-opacity:1;fill-rule:nonzero;stroke:none" transform="matrix(0.13333332538604736, 0, 0, -0.13333332538604736, 0, 2666.666748046875)"/>
  <path d="M 8576.14 17828.3 c 0 -52.5 16.86 -92.9 52.5 -121 c 33.77 -28.1 72.21 -42.2 117.25 -42.2 c 42.2 0 79.72 15 112.54 44.1 c 33.77 28.1 50.63 68.5 50.63 119.1 c 0 56.3 -16.86 97.5 -50.63 126.6 c -32.82 29.1 -70.34 43.2 -112.54 43.2 c -45.04 0 -83.48 -14.1 -117.25 -42.3 c -35.64 -27.1 -52.5 -69.4 -52.5 -127.5 Z" style="fill:#ffffff;fill-opacity:1;fill-rule:nonzero;stroke:none" transform="matrix(0.13333332538604736, 0, 0, -0.13333332538604736, 0, 2666.666748046875)"/>
  <path d="M 10884.2 17828.3 c 0 58.1 -16.9 100.4 -51.6 127.5 c -34.7 28.2 -73.1 42.3 -117.2 42.3 c -43.1 0 -80.7 -14.1 -113.5 -43.2 c -32.8 -29.1 -49.7 -70.3 -49.7 -126.6 c 0 -50.6 16.9 -91 49.7 -119.1 c 32.8 -29.1 70.4 -44.1 113.5 -44.1 c 44.1 0 82.5 14.1 117.2 42.2 c 34.7 28.1 51.6 68.5 51.6 121 Z" style="fill:#ffffff;fill-opacity:1;fill-rule:nonzero;stroke:none" transform="matrix(0.13333332538604736, 0, 0, -0.13333332538604736, 0, 2666.666748046875)"/>
  <path d="M 7647.64 17436.3 c 0 -55.4 16.9 -96.6 50.67 -123.8 c 33.76 -28.2 73.15 -42.2 115.34 -42.2 c 42.2 0 80.65 15 116.29 43.1 c 34.7 28.2 51.59 69.4 51.59 122.9 c 0 53.4 -16.89 93.8 -51.59 121 c -35.64 29 -74.09 42.2 -116.29 42.2 c -42.19 0 -81.58 -13.2 -115.34 -39.4 c -33.77 -28.2 -50.67 -68.5 -50.67 -123.8 Z" style="fill:#ffffff;fill-opacity:1;fill-rule:nonzero;stroke:none" transform="matrix(0.13333332538604736, 0, 0, -0.13333332538604736, 0, 2666.666748046875)"/>
  <path d="M 11813.6 17436.3 c 0 55.3 -17.8 95.6 -51.6 123.8 c -33.7 26.2 -72.2 39.4 -115.3 39.4 c -42.2 0 -80.7 -13.2 -115.4 -42.2 c -35.6 -27.2 -52.5 -67.6 -52.5 -121 c 0 -53.5 16.9 -94.7 52.5 -122.9 c 34.7 -28.1 73.2 -43.1 115.4 -43.1 c 43.1 0 81.6 14 115.3 42.2 c 33.8 27.2 51.6 68.4 51.6 123.8 v 0" style="fill:#ffffff;fill-opacity:1;fill-rule:nonzero;stroke:none" transform="matrix(0.13333332538604736, 0, 0, -0.13333332538604736, 0, 2666.666748046875)"/>
  <path d="m 9381.76,18012.1 c 0,56.3 10.31,106.9 30.01,150.1 20.62,43.1 46.88,79.7 79.71,109.7 31.89,29.1 67.53,51.6 108.79,65.7 40.33,15 81.59,22.5 124.75,22.5 42.2,0 84.39,-7.5 126.59,-22.5 43.14,-14.1 80.68,-35.7 113.47,-63.8 33.77,-30 61.02,-65.7 81.62,-109.7 21.6,-44.1 31.9,-95.7 31.9,-152 0,-92.8 -22.5,-165 -68.5,-219.4 -46.89,-52.6 -102.2,-89.1 -166.92,-110.7 l 316.02,-1393.7 437.1,1217.4 c -70.4,21.6 -126.6,62.8 -168.8,120 -43.2,58.2 -63.8,125.7 -63.8,202.6 0,58.1 10.3,108.8 31.9,153.8 21.5,43.1 48.7,79.7 82.5,109.7 34.7,30.1 73.2,51.6 114.4,66.6 41.3,15 82.6,21.6 125.7,21.6 42.2,0 84.4,-6.6 127.6,-21.6 42.2,-15 79.7,-36.5 112.5,-66.6 33.8,-30 60,-66.6 80.6,-109.7 19.8,-45 30.1,-95.7 30.1,-153.8 0,-40.3 -6.6,-79.7 -20.7,-118.2 -14,-39.4 -33.8,-73.1 -59.1,-103.1 -26.2,-31 -58.1,-57.2 -94.7,-78.8 -36.6,-20.6 -78.8,-33.8 -123.8,-39.4 l 116.3,-1253 583.3,892.9 c -53.4,30 -96.5,72.2 -127.5,125.6 -30.9,55.4 -46.9,115.4 -46.9,182 0,57.2 10.3,106.9 31.9,151 20.6,43.1 47.8,78.8 81.6,108.8 32.8,30 71.3,51.5 112.5,66.5 43.2,15.1 85.4,21.6 127.6,21.6 43.1,0 85.3,-6.5 126.6,-21.6 41.3,-15 78.8,-36.5 110.7,-66.5 31.8,-30 59.1,-65.7 78.8,-108.8 20.6,-44.1 29.9,-93.8 29.9,-151 0,-44.1 -7.4,-87.2 -22.4,-128.5 -16,-42.2 -39.4,-78.8 -68.5,-110.7 -29.1,-31.9 -65.7,-58.1 -107.9,-76.9 -42.2,-17.8 -90,-27.2 -144.4,-27.2 h -46.9 l -229.8,-1510.9 v -1329.8 c -266.3,-37.6 -542.1,-64.8 -828.1,-81.6 -285.1,-17.9 -559.9,-26.3 -822.48,-26.3 -271.05,0 -546.78,8.4 -827.2,26.3 -280.42,16.8 -553.35,44 -818.74,81.6 v 1329.8 L 7854.91,17093 h -46.88 c -54.41,0 -102.23,9.4 -143.49,27.2 -43.13,18.8 -78.8,45 -108.79,76.9 -29.08,31.9 -51.59,68.5 -66.59,110.7 -16.89,41.3 -24.39,84.4 -24.39,128.5 0,57.2 9.37,106.9 30.95,151 19.71,43.1 45.95,78.8 77.83,108.8 32.83,30 70.35,51.5 111.61,66.5 40.35,15.1 83.48,21.6 125.68,21.6 42.2,0 84.39,-6.5 127.56,-21.6 42.2,-15 79.71,-36.5 113.48,-66.5 32.82,-30 60,-65.7 80.64,-108.8 21.58,-44.1 31.89,-93.8 31.89,-151 0,-66.6 -15.93,-126.6 -46.88,-182 -30.96,-53.4 -74.09,-95.6 -127.56,-125.6 l 583.36,-892.9 116.28,1253 c -45.01,5.6 -86.3,18.8 -123.78,39.4 -36.61,21.6 -68.5,47.8 -93.79,78.8 -26.27,30 -45.99,63.7 -60.04,103.1 -14.05,38.5 -20.64,77.9 -20.64,118.2 0,58.1 10.33,108.8 30.01,153.8 20.65,43.1 47.85,79.7 80.68,109.7 32.83,30.1 70.34,51.6 113.47,66.6 42.2,15 84.4,21.6 127.57,21.6 40.32,0 81.58,-6.6 123.78,-21.6 43.13,-15 80.64,-36.5 115.34,-66.6 33.77,-30 61.91,-66.6 82.55,-109.7 21.55,-45 31.89,-95.7 31.89,-153.8 0,-76.9 -20.64,-144.4 -62.84,-202.6 -43.14,-57.2 -99.42,-98.4 -169.76,-120 l 438,-1217.4 315.09,1393.7 c -64.69,21.6 -120.04,58.1 -165.98,110.7 -46.92,54.4 -69.4,126.6 -69.4,219.4 z M 8269.45,15256.7 c 105.04,5.6 219.45,9.4 342.33,13.1 121.9,3.8 246.65,6.6 374.21,8.5 127.53,1.9 254.15,3.7 380.74,4.7 126.62,0.9 245.72,0.9 358.29,0.9 109.73,0 228.82,0 356.38,-0.9 127.5,-1 256,-2.8 384.5,-4.7 129.4,-1.9 256,-4.7 380.8,-8.5 124.7,-3.7 239.1,-7.5 344.2,-13.1 v 323.6 c -112.6,4.6 -231.7,10.3 -356.4,15.9 -125.7,5.6 -252.3,9.4 -378.9,12.2 -127.5,3.7 -253.2,6.6 -377.9,8.4 -124.8,1.9 -242.95,2.8 -352.68,2.8 -108.79,0 -225.1,-0.9 -347.01,-2.8 -122.88,-1.8 -248.53,-4.7 -375.15,-8.4 -127.56,-2.8 -253.22,-6.6 -377.03,-12.2 -124.72,-5.6 -243.84,-11.3 -356.38,-15.9 z m 1455.57,-434.2 c 111.6,0 231.63,0 359.18,0.9 127.6,1 255.1,1.9 383.6,2.8 128.5,1 254.1,2.8 378.9,5.7 124.7,2.8 239.1,5.6 344.2,9.3 v 229.8 c -105.1,3.8 -219.5,7.5 -344.2,11.3 -124.8,3.7 -250.4,6.5 -378.9,8.4 -128.5,1.9 -256,2.8 -383.6,3.7 -127.55,1 -247.58,1.9 -359.18,1.9 -110.69,0 -228.85,-0.9 -355.47,-1.9 -126.6,-0.9 -254.16,-1.8 -382.66,-3.7 -127.52,-1.9 -253.21,-4.7 -375.11,-8.4 -122.88,-3.8 -237.29,-7.5 -342.33,-11.3 v -229.8 c 105.04,-3.7 219.45,-6.5 342.33,-9.3 121.9,-2.9 247.59,-4.7 375.11,-5.7 128.5,-0.9 256.06,-1.8 382.66,-2.8 126.62,-0.9 244.78,-0.9 355.47,-0.9 z m 0,-476.5 c 111.6,0 232.57,1.9 361.98,6.6 129.5,4.7 258.9,12.2 389.2,20.6 129.5,8.5 257,17.9 379.9,28.2 123.7,11.2 234.4,24.4 334.8,39.4 v 207.2 c -105.1,-5.6 -219.5,-10.3 -344.2,-14 -124.8,-3.8 -250.4,-7.6 -378.9,-10.4 -128.5,-2.8 -256,-4.6 -383.6,-5.6 -127.55,-0.9 -247.58,-0.9 -359.18,-0.9 -110.69,0 -228.85,0 -355.47,0.9 -126.6,1 -253.22,2.8 -380.78,5.6 -127.53,2.8 -253.21,6.6 -376.06,10.4 -122.87,3.7 -238.22,8.4 -343.26,14 v -207.2 c 100.35,-15 211.02,-28.2 333.86,-39.4 121.94,-10.3 248.56,-19.7 378.9,-28.2 129.44,-8.4 257.93,-15.9 385.46,-20.6 127.56,-4.7 246.66,-6.6 357.35,-6.6 z m 0,1450 c 59.06,0 118.16,0 180.06,-1 60,-0.9 121.02,-2.8 181.92,-4.7 l -356.36,1590.6 -357.31,-1590.6 c 60.93,1.9 120.96,3.8 180.06,4.7 59.06,1 116.28,1 171.63,1 z m -1012.89,-24.4 c 85.33,3.7 174.44,6.5 267.27,9.3 92.86,2.9 184.75,5.7 274.8,9.4 l -425.79,1248.3 z m 1911.37,1268.9 -417.4,-1250.2 c 91,-3.7 182,-6.5 274.8,-9.4 93.8,-2.8 182,-5.6 267.3,-9.3 z M 8253.52,15748.1 c 17.8,2.8 42.2,4.7 75.02,5.7 30.96,0.9 63.78,1.8 98.49,3.7 35.6,1.9 70.3,2.8 104.1,3.8 33.73,0.9 63.75,1.8 90.01,1.8 l -530.82,879.7 z m 3116.48,894.7 -529.9,-879.7 c 23.5,0 52.5,-0.9 88.2,-1.8 34.7,-1 70.3,-1.9 105,-3.8 34.7,-1.9 67.5,-2.8 99.4,-3.7 31.9,-1 56.3,-2.9 75.1,-5.7 z m -1806.3,1369.3 c 0,-54.4 16.86,-95.6 47.81,-124.7 30.96,-29.1 68.47,-44.1 113.51,-44.1 47.82,0 88.14,14.1 120.97,42.2 33.76,29.1 50.63,70.3 50.63,126.6 0,52.5 -16.87,93.8 -50.63,124.8 -32.83,29 -73.15,43.1 -120.97,43.1 -46.91,0 -84.42,-14.1 -114.44,-43.1 -30.96,-31 -46.88,-72.3 -46.88,-124.8 z m -987.56,-183.8 c 0,-52.5 16.86,-92.9 52.5,-121 33.77,-28.1 72.21,-42.2 117.25,-42.2 42.2,0 79.72,15 112.54,44.1 33.77,28.1 50.63,68.5 50.63,119.1 0,56.3 -16.86,97.5 -50.63,126.6 -32.82,29.1 -70.34,43.2 -112.54,43.2 -45.04,0 -83.48,-14.1 -117.25,-42.3 -35.64,-27.1 -52.5,-69.4 -52.5,-127.5 z m 2308.06,0 c 0,58.1 -16.9,100.4 -51.6,127.5 -34.7,28.2 -73.1,42.3 -117.2,42.3 -43.1,0 -80.7,-14.1 -113.5,-43.2 -32.8,-29.1 -49.7,-70.3 -49.7,-126.6 0,-50.6 16.9,-91 49.7,-119.1 32.8,-29.1 70.4,-44.1 113.5,-44.1 44.1,0 82.5,14.1 117.2,42.2 34.7,28.1 51.6,68.5 51.6,121 z m -3236.56,-392 c 0,-55.4 16.9,-96.6 50.67,-123.8 33.76,-28.2 73.15,-42.2 115.34,-42.2 42.2,0 80.65,15 116.29,43.1 34.7,28.2 51.59,69.4 51.59,122.9 0,53.4 -16.89,93.8 -51.59,121 -35.64,29 -74.09,42.2 -116.29,42.2 -42.19,0 -81.58,-13.2 -115.34,-39.4 -33.77,-28.2 -50.67,-68.5 -50.67,-123.8 z m 4165.96,0 c 0,55.3 -17.8,95.6 -51.6,123.8 -33.7,26.2 -72.2,39.4 -115.3,39.4 -42.2,0 -80.7,-13.2 -115.4,-42.2 -35.6,-27.2 -52.5,-67.6 -52.5,-121 0,-53.5 16.9,-94.7 52.5,-122.9 34.7,-28.1 73.2,-43.1 115.4,-43.1 43.1,0 81.6,14 115.3,42.2 33.8,27.2 51.6,68.4 51.6,123.8 v 0" style="fill:#100f0d;fill-opacity:1;fill-rule:evenodd;stroke:none" transform="matrix(0.13333332538604736, 0, 0, -0.13333332538604736, 0, 2666.666748046875)"/>
</svg>
