<?xml version="1.0" encoding="utf-8"?>
<svg xmlns="http://www.w3.org/2000/svg" viewBox="203.376 197.654 520.699 604.106" width="520.699px" height="604.106px">
  <path d="M 210 465 C 210 430 225 400 260 385 C 300 370 340 370 375 382 C 395 390 410 402 420 415 L 452 280 L 475 280 L 510 415 C 520 402 535 390 555 382 C 590 370 630 370 670 385 C 705 400 718 430 718 465 C 718 492 708 518 690 542 C 675 562 655 580 645 608 L 680 620 L 680 800 L 245 800 L 245 620 L 280 608 C 270 580 250 562 235 542 C 217 518 210 492 210 465 Z" style="fill:#ffffff;fill-opacity:1;fill-rule:nonzero;stroke:none" transform="matrix(1, 0, 0, 1, 0, 0)"/>
  <path d="M 452.221 219.414 L 431.211 219.414 L 431.211 240.414 L 452.221 240.414 L 452.221 278.427 C 439.84 296.814 429.712 317.067 422.084 339.334 C 420.434 344.045 418.965 348.852 417.674 353.757 C 425.528 363.971 432.681 373.902 438.955 382.72 C 439.606 377.67 440.443 372.52 441.466 367.334 C 443.217 357.707 445.968 347.961 449.469 337.961 C 453.096 328.081 457.848 318.067 463.724 308.321 C 469.602 318.067 474.354 328.081 477.729 337.961 C 481.232 347.961 483.857 357.707 485.858 367.334 C 487.734 376.841 489.109 386.227 489.736 395.094 C 490.234 404.107 490.61 412.361 490.61 420.107 C 490.61 432.103 489.972 443.291 488.63 453.751 C 496.284 465.109 503.848 476.524 511.352 487.979 C 515.869 473.67 521.169 460.038 527.25 447 C 534.377 432.12 542.504 419.227 551.882 407.987 C 561.137 396.974 571.89 387.974 583.77 381.347 C 595.65 374.587 608.906 371.347 623.41 371.347 C 635.165 371.347 645.544 373.347 654.797 377.347 C 663.801 381.6 671.43 386.974 677.556 393.854 C 683.682 400.734 688.434 408.854 691.437 418.24 C 694.564 427.494 696.064 437.36 696.064 447.627 C 696.064 470.76 691.561 491.507 682.308 510.014 C 673.304 528.4 661.3 544.16 646.669 557.294 C 631.913 570.294 615.032 580.294 596.149 587.174 C 590.371 589.342 584.571 591.174 578.743 592.674 C 585.267 602.816 591.813 612.944 598.401 623.046 C 619.176 623.778 639.341 624.661 658.8 625.694 L 658.8 668.96 L 628.855 668.96 C 633.44 675.734 638.057 682.487 642.714 689.214 L 658.8 689.214 L 658.8 712.113 C 662.312 717.037 665.85 721.943 669.415 726.832 C 674.096 733.252 679.479 741.076 685.436 749.708 L 685.436 604.054 C 681.184 603.8 676.432 603.427 671.304 603.054 C 666.176 602.68 660.925 602.307 655.673 602.054 C 650.42 601.68 645.044 601.307 639.917 600.934 C 634.791 600.547 630.289 600.174 626.287 599.934 C 640.292 593.92 653.423 585.547 665.427 575.294 C 677.432 564.92 687.809 553.28 696.439 540.027 C 705.067 526.907 711.817 512.64 716.695 497.134 C 721.571 481.627 724.075 465.627 724.075 449.12 C 724.075 434.12 721.447 420.48 716.444 407.987 C 711.444 395.6 704.443 384.84 695.313 375.72 C 686.309 366.72 675.432 359.707 663.052 354.587 C 650.669 349.587 637.041 347.08 622.284 347.08 C 610.28 347.08 598.9 348.707 588.273 352.214 C 577.768 355.587 568.015 360.467 559.263 366.347 C 550.384 372.347 542.38 379.347 535.252 387.227 C 528.124 394.974 521.999 403.48 516.869 412.227 C 516.869 385.72 513.12 361.467 505.365 339.334 C 497.863 317.067 487.609 296.814 475.231 278.427 L 475.231 240.414 L 496.236 240.414 L 496.236 219.414 L 475.231 219.414 L 475.231 197.654 L 452.221 197.654 L 452.221 219.414 Z" style="fill:#ffffff;fill-opacity:1;fill-rule:nonzero;stroke:none" transform="matrix(1, 0, 0, 1, 0, -5.684341886080802e-14)"/>
  <path d="M 410.58 412.227 C 405.453 403.48 399.325 394.974 392.197 387.227 C 385.071 379.347 377.065 372.347 368.189 366.347 C 359.311 360.467 349.683 355.587 339.052 352.214 C 328.547 348.707 317.169 347.08 305.164 347.08 C 290.408 347.08 276.777 349.587 264.524 354.587 C 252.02 359.707 241.139 366.72 232.136 375.72 C 223.009 384.84 216.004 395.6 211.003 407.987 C 205.876 420.48 203.376 434.12 203.376 449.12 C 203.376 465.627 205.751 481.627 210.753 497.134 C 215.629 512.64 222.383 526.907 231.012 540.027 C 239.639 553.28 250.019 564.92 261.897 575.294 C 274.027 585.547 287.157 593.92 301.039 599.934 C 296.912 600.174 292.284 600.547 287.283 600.934 C 282.156 601.307 277.028 601.68 271.776 602.054 C 266.525 602.307 261.273 602.68 256.147 603.054 C 251.02 603.427 246.267 603.8 242.016 604.054 L 242.016 801.76 L 685.436 801.76 L 685.436 749.708 C 679.479 741.076 674.096 733.252 669.415 726.832 C 665.85 721.943 662.312 717.037 658.8 712.113 L 658.8 721.227 L 268.651 721.227 L 268.651 689.214 L 642.714 689.214 C 638.057 682.487 633.44 675.734 628.855 668.96 L 268.65 668.96 L 268.65 625.694 C 298.537 624.067 330.298 622.814 363.812 621.934 C 397.198 621.067 429.962 620.56 462.224 620.56 C 494.986 620.56 528.124 621.067 562.01 621.934 C 574.33 622.255 586.466 622.626 598.401 623.046 C 591.813 612.944 585.267 602.816 578.743 592.674 C 565.4 596.108 551.918 597.8 538.252 597.8 C 528.873 597.8 520.497 597.307 512.994 596.547 C 505.49 595.68 498.74 594.307 492.736 592.68 C 493.61 577.174 495.486 560.787 498.237 543.787 C 500.988 526.654 504.865 509.894 509.617 493.64 C 510.182 491.742 510.761 489.855 511.352 487.979 C 503.848 476.524 496.284 465.109 488.63 453.751 C 488.293 456.382 487.911 458.967 487.484 461.507 C 485.358 474.254 482.982 487.134 480.357 500.641 C 477.604 514.027 474.728 528.401 471.602 543.907 C 468.6 559.414 466.226 577.414 464.474 597.801 L 462.973 597.801 C 461.098 577.414 458.597 559.414 455.721 543.907 C 452.596 528.401 449.842 514.027 447.092 500.641 C 444.466 487.134 442.09 474.254 439.965 461.507 C 437.841 448.867 436.84 435.121 436.84 420.107 C 436.84 412.361 437.214 404.107 437.714 395.094 C 437.999 391.064 438.413 386.927 438.955 382.72 C 432.681 373.902 425.528 363.971 417.674 353.757 C 412.904 371.894 410.58 391.363 410.58 412.227 Z" style="fill:#ffffff;fill-opacity:1;fill-rule:nonzero;stroke:none" transform="matrix(1, 0, 0, 1, 0, -5.684341886080802e-14)"/>
  <path d="M 231.387 447.627 C 231.387 437.36 233.012 427.494 236.013 418.24 C 239.013 408.854 243.64 400.734 249.893 393.854 C 256.021 386.974 263.524 381.6 272.653 377.347 C 281.779 373.347 292.284 371.347 304.039 371.347 C 318.544 371.347 331.8 374.587 343.679 381.347 C 355.559 387.974 366.313 396.974 375.567 407.987 C 384.945 419.227 393.072 432.12 400.2 447 C 407.077 461.747 412.956 477.254 417.833 493.64 C 422.584 509.894 426.335 526.654 429.087 543.787 C 431.713 560.787 433.589 577.174 434.588 592.68 C 428.713 594.307 421.957 595.68 414.455 596.547 C 406.953 597.307 398.573 597.8 389.195 597.8 C 369.564 597.8 350.307 594.307 331.3 587.174 C 312.417 580.294 295.535 570.294 280.78 557.294 C 266.149 544.16 254.145 528.4 245.141 510.014 C 235.888 491.507 231.387 470.76 231.387 447.627 Z" style="fill:#ffffff;fill-opacity:1;fill-rule:nonzero;stroke:none" transform="matrix(1, 0, 0, 1, 0, -5.684341886080802e-14)"/>
  <path d="M 658.8 777.627 L 268.651 777.627 L 268.651 741.227 L 658.8 741.227 L 658.8 777.627 Z" style="fill:#ffffff;fill-opacity:1;fill-rule:nonzero;stroke:none" transform="matrix(1, 0, 0, 1, 0, -5.684341886080802e-14)"/>
  <path d="M 452.221 219.414 L 431.211 219.414 L 431.211 240.414 L 452.221 240.414 L 452.221 278.427 C 439.84 296.814 429.712 317.067 422.084 339.334 C 420.434 344.045 418.965 348.852 417.674 353.757 C 425.528 363.971 432.681 373.902 438.955 382.72 C 439.606 377.67 440.443 372.52 441.466 367.334 C 443.217 357.707 445.968 347.961 449.469 337.961 C 453.096 328.081 457.848 318.067 463.724 308.321 C 469.602 318.067 474.354 328.081 477.729 337.961 C 481.232 347.961 483.857 357.707 485.858 367.334 C 487.734 376.841 489.109 386.227 489.736 395.094 C 490.234 404.107 490.61 412.361 490.61 420.107 C 490.61 432.103 489.972 443.291 488.63 453.751 C 496.284 465.109 503.848 476.524 511.352 487.979 C 515.869 473.67 521.169 460.038 527.25 447 C 534.377 432.12 542.504 419.227 551.882 407.987 C 561.137 396.974 571.89 387.974 583.77 381.347 C 595.65 374.587 608.906 371.347 623.41 371.347 C 635.165 371.347 645.544 373.347 654.797 377.347 C 663.801 381.6 671.43 386.974 677.556 393.854 C 683.682 400.734 688.434 408.854 691.437 418.24 C 694.564 427.494 696.064 437.36 696.064 447.627 C 696.064 470.76 691.561 491.507 682.308 510.014 C 673.304 528.4 661.3 544.16 646.669 557.294 C 631.913 570.294 615.032 580.294 596.149 587.174 C 590.371 589.342 584.571 591.174 578.743 592.674 C 585.267 602.816 591.813 612.944 598.401 623.046 C 619.176 623.778 639.341 624.661 658.8 625.694 L 658.8 668.96 L 628.855 668.96 C 633.44 675.734 638.057 682.487 642.714 689.214 L 658.8 689.214 L 658.8 712.113 C 662.312 717.037 665.85 721.943 669.415 726.832 C 674.096 733.252 679.479 741.076 685.436 749.708 L 685.436 604.054 C 681.184 603.8 676.432 603.427 671.304 603.054 C 666.176 602.68 660.925 602.307 655.673 602.054 C 650.42 601.68 645.044 601.307 639.917 600.934 C 634.791 600.547 630.289 600.174 626.287 599.934 C 640.292 593.92 653.423 585.547 665.427 575.294 C 677.432 564.92 687.809 553.28 696.439 540.027 C 705.067 526.907 711.817 512.64 716.695 497.134 C 721.571 481.627 724.075 465.627 724.075 449.12 C 724.075 434.12 721.447 420.48 716.444 407.987 C 711.444 395.6 704.443 384.84 695.313 375.72 C 686.309 366.72 675.432 359.707 663.052 354.587 C 650.669 349.587 637.041 347.08 622.284 347.08 C 610.28 347.08 598.9 348.707 588.273 352.214 C 577.768 355.587 568.015 360.467 559.263 366.347 C 550.384 372.347 542.38 379.347 535.252 387.227 C 528.124 394.974 521.999 403.48 516.869 412.227 C 516.869 385.72 513.12 361.467 505.365 339.334 C 497.863 317.067 487.609 296.814 475.231 278.427 L 475.231 240.414 L 496.236 240.414 L 496.236 219.414 L 475.231 219.414 L 475.231 197.654 L 452.221 197.654 L 452.221 219.414 Z" style="fill:#100f0d;fill-opacity:1;fill-rule:evenodd;stroke:none" transform="matrix(1, 0, 0, 1, 0, -5.684341886080802e-14)"/>
  <path d="M 410.58 412.227 C 405.453 403.48 399.325 394.974 392.197 387.227 C 385.071 379.347 377.065 372.347 368.189 366.347 C 359.311 360.467 349.683 355.587 339.052 352.214 C 328.547 348.707 317.169 347.08 305.164 347.08 C 290.408 347.08 276.777 349.587 264.524 354.587 C 252.02 359.707 241.139 366.72 232.136 375.72 C 223.009 384.84 216.004 395.6 211.003 407.987 C 205.876 420.48 203.376 434.12 203.376 449.12 C 203.376 465.627 205.751 481.627 210.753 497.134 C 215.629 512.64 222.383 526.907 231.012 540.027 C 239.639 553.28 250.019 564.92 261.897 575.294 C 274.027 585.547 287.157 593.92 301.039 599.934 C 296.912 600.174 292.284 600.547 287.283 600.934 C 282.156 601.307 277.028 601.68 271.776 602.054 C 266.525 602.307 261.273 602.68 256.147 603.054 C 251.02 603.427 246.267 603.8 242.016 604.054 L 242.016 801.76 L 685.436 801.76 L 685.436 749.708 C 679.479 741.076 674.096 733.252 669.415 726.832 C 665.85 721.943 662.312 717.037 658.8 712.113 L 658.8 721.227 L 268.651 721.227 L 268.651 689.214 L 642.714 689.214 C 638.057 682.487 633.44 675.734 628.855 668.96 L 268.65 668.96 L 268.65 625.694 C 298.537 624.067 330.298 622.814 363.812 621.934 C 397.198 621.067 429.962 620.56 462.224 620.56 C 494.986 620.56 528.124 621.067 562.01 621.934 C 574.33 622.255 586.466 622.626 598.401 623.046 C 591.813 612.944 585.267 602.816 578.743 592.674 C 565.4 596.108 551.918 597.8 538.252 597.8 C 528.873 597.8 520.497 597.307 512.994 596.547 C 505.49 595.68 498.74 594.307 492.736 592.68 C 493.61 577.174 495.486 560.787 498.237 543.787 C 500.988 526.654 504.865 509.894 509.617 493.64 C 510.182 491.742 510.761 489.855 511.352 487.979 C 503.848 476.524 496.284 465.109 488.63 453.751 C 488.293 456.382 487.911 458.967 487.484 461.507 C 485.358 474.254 482.982 487.134 480.357 500.641 C 477.604 514.027 474.728 528.401 471.602 543.907 C 468.6 559.414 466.226 577.414 464.474 597.801 L 462.973 597.801 C 461.098 577.414 458.597 559.414 455.721 543.907 C 452.596 528.401 449.842 514.027 447.092 500.641 C 444.466 487.134 442.09 474.254 439.965 461.507 C 437.841 448.867 436.84 435.121 436.84 420.107 C 436.84 412.361 437.214 404.107 437.714 395.094 C 437.999 391.064 438.413 386.927 438.955 382.72 C 432.681 373.902 425.528 363.971 417.674 353.757 C 412.904 371.894 410.58 391.363 410.58 412.227 Z M 231.387 447.627 C 231.387 437.36 233.012 427.494 236.013 418.24 C 239.013 408.854 243.64 400.734 249.893 393.854 C 256.021 386.974 263.524 381.6 272.653 377.347 C 281.779 373.347 292.284 371.347 304.039 371.347 C 318.544 371.347 331.8 374.587 343.679 381.347 C 355.559 387.974 366.313 396.974 375.567 407.987 C 384.945 419.227 393.072 432.12 400.2 447 C 407.077 461.747 412.956 477.254 417.833 493.64 C 422.584 509.894 426.335 526.654 429.087 543.787 C 431.713 560.787 433.589 577.174 434.588 592.68 C 428.713 594.307 421.957 595.68 414.455 596.547 C 406.953 597.307 398.573 597.8 389.195 597.8 C 369.564 597.8 350.307 594.307 331.3 587.174 C 312.417 580.294 295.535 570.294 280.78 557.294 C 266.149 544.16 254.145 528.4 245.141 510.014 C 235.888 491.507 231.387 470.76 231.387 447.627 Z M 658.8 777.627 L 268.651 777.627 L 268.651 741.227 L 658.8 741.227 L 658.8 777.627 Z" style="fill:#100f0d;fill-opacity:1;fill-rule:evenodd;stroke:none" transform="matrix(1, 0, 0, 1, 0, -5.684341886080802e-14)"/>
</svg>
