<?xml version="1.0" encoding="utf-8"?>
<svg xmlns="http://www.w3.org/2000/svg" viewBox="1867.2662 197.6539 527.4399 604.1065" width="527.44px" height="604.106px">
  <path d="M 16832.1 18166.9 v 350.7 h 698.7 v -1174.2 h -240.1 l -325.4 -461.4 v -1273.6 l 325.4 -464.2 h 240.1 v -468 h 429.5 v -689.4 h -3955.8 v 689.4 h 430.4 v 468 h 227 l 338.5 464.2 V 16882 l -335.7 461.4 h -229.8 v 1174.2 h 684.7 v -350.7 h 379.8 v 350.7 h 957.6 v -350.7 Z" style="fill:#ffffff;fill-opacity:1;fill-rule:nonzero;stroke:none" transform="matrix(0.13333332538604736, 0, 0, -0.13333332538604736, 0, 2666.666748046875)"/>
  <path d="M 16747.7 15608.4 V 16882 h -1526.8 v -1273.6 Z" style="fill:#ffffff;fill-opacity:1;fill-rule:nonzero;stroke:none" transform="matrix(0.13333332538604736, 0, 0, -0.13333332538604736, 0, 2666.666748046875)"/>
  <path d="M 17303.8 17554.4 v 755 h -259.7 v -360.1 h -796.3 v 360.1 h -536.5 v -360.1 h -799.9 v 360.1 h -258 v -755 Z" style="fill:#ffffff;fill-opacity:1;fill-rule:nonzero;stroke:none" transform="matrix(0.13333332538604736, 0, 0, -0.13333332538604736, 0, 2666.666748046875)"/>
  <path d="M 17739 14208.2 v 243.8 h -3506.7 v -243.8 Z" style="fill:#ffffff;fill-opacity:1;fill-rule:nonzero;stroke:none" transform="matrix(0.13333332538604736, 0, 0, -0.13333332538604736, 0, 2666.666748046875)"/>
  <path d="M 17303.8 14676.2 v 249.4 h -2650.4 v -249.4 Z" style="fill:#ffffff;fill-opacity:1;fill-rule:nonzero;stroke:none" transform="matrix(0.13333332538604736, 0, 0, -0.13333332538604736, 0, 2666.666748046875)"/>
  <path d="M 14917.9 15144.2 h 2113.9 l -167.8 242.9 h -1762.3 Z" style="fill:#ffffff;fill-opacity:1;fill-rule:nonzero;stroke:none" transform="matrix(0.13333332538604736, 0, 0, -0.13333332538604736, 0, 2666.666748046875)"/>
  <path d="M 15101.7 17102.4 H 16864 l 171.6 241 h -2113.9 l 180 -241" style="fill:#ffffff;fill-opacity:1;fill-rule:nonzero;stroke:none" transform="matrix(0.13333332538604736, 0, 0, -0.13333332538604736, 0, 2666.666748046875)"/>
  <path d="m 16832.1,18166.9 v 350.7 h 698.7 v -1174.2 h -240.1 l -325.4,-461.4 v -1273.6 l 325.4,-464.2 h 240.1 v -468 h 429.5 v -689.4 h -3955.8 v 689.4 h 430.4 v 468 h 227 l 338.5,464.2 V 16882 l -335.7,461.4 h -229.8 v 1174.2 h 684.7 v -350.7 h 379.8 v 350.7 h 957.6 v -350.7 z m -84.4,-2558.5 V 16882 h -1526.8 v -1273.6 z m 556.1,1946 v 755 h -259.7 v -360.1 h -796.3 v 360.1 h -536.5 v -360.1 h -799.9 v 360.1 h -258 v -755 z m 435.2,-3346.2 v 243.8 h -3506.7 v -243.8 z m -435.2,468 v 249.4 h -2650.4 v -249.4 z m -2385.9,468 h 2113.9 l -167.8,242.9 h -1762.3 z m 183.8,1958.2 H 16864 l 171.6,241 h -2113.9 l 180,-241" style="fill:#100f0d;fill-opacity:1;fill-rule:evenodd;stroke:none" transform="matrix(0.13333332538604736, 0, 0, -0.13333332538604736, 0, 2666.666748046875)"/>
</svg>
