<?xml version="1.0" encoding="utf-8"?>
<svg xmlns="http://www.w3.org/2000/svg" viewBox="213.004 1031.3467 501.3172 603.9735" width="501.317px" height="603.973px">
  <path d="M 2885.2 11004.4 c -10.31 26.3 -14.99 47.9 -14.99 66.6 c 0 25.4 6.56 46.9 21.57 61.9 c 14.06 16 30.01 28.2 50.64 35.7 c 19.69 8.4 41.26 13.1 64.72 15 c 24.37 1.9 45.01 2.8 63.76 2.8 c 45.97 0 92.85 -2.8 141.62 -9.4 c 48.77 -7.5 90.97 -11.2 126.61 -11.2 c -26.26 -28.2 -57.21 -51.6 -93.78 -71.3 c -36.58 -19.7 -76.9 -37.5 -118.18 -51.6 c -42.19 -13.1 -84.39 -23.5 -125.67 -29.1 c -42.2 -6.5 -80.65 -9.4 -116.3 -9.4 Z" style="fill:#ffffff;fill-opacity:1;fill-rule:nonzero;stroke:none" transform="matrix(0.13333332538604736, 0, 0, -0.13333332538604736, 0, 2666.666748046875)"/>
  <path d="M 2487.56 7735.1 c -21.57 55.3 -41.26 121.9 -59.09 200.7 c -17.81 76.9 -27.2 177.2 -27.2 300.1 c 0 151.9 28.13 288.9 83.48 409.9 c 56.27 121.9 125.67 232.5 210.08 331.9 c 83.46 101.3 174.44 195.1 272.9 281.4 c 97.55 87.2 189.46 171.6 272.93 254.2 c 83.47 82.5 152.88 165 209.14 249.4 c 55.33 83.5 83.48 173.5 83.48 271.1 c -61.91 -61 -141.62 -114.4 -240.1 -159.5 c -99.42 -45 -228.83 -70.3 -389.21 -78.8 c -60.97 -44 -121.92 -80.6 -182.89 -110.6 c -61.89 -30 -127.54 -55.4 -196.94 -77.9 c -61.91 -69.4 -125.67 -125.6 -192.26 -167.8 c -67.53 -43.2 -136 -64.8 -205.4 -64.8 c -57.21 0 -110.66 10.3 -160.37 32.9 c -49.71 21.5 -95.66 51.6 -136.94 90 c -40.32 37.5 -75.01 81.6 -104.1 131.3 c -28.12 49.7 -49.69 101.3 -63.76 157.6 c -24.4 35.6 -41.28 75.9 -48.77 118.2 c -9.37 43.1 -15.01 83.4 -15.01 123.7 c 0 32.9 10.32 64.7 30.95 99.4 c 19.69 35.7 44.09 68.5 71.28 101.3 c 27.19 31.9 57.2 59.1 86.28 83.5 c 30.02 23.5 56.27 42.2 77.84 53.5 c 67.53 89.1 128.49 166.9 180.06 232.6 c 53.48 65.6 105.04 126.6 156.64 183.8 c 49.69 57.2 102.21 113.5 157.55 168.8 c 55.34 55.3 120.06 118.2 196.02 187.6 c -4.68 16.8 -6.57 30.9 -6.57 45 c 0 61.9 13.13 116.3 39.4 164.1 c 25.31 47.8 58.14 90 96.59 124.7 c 38.45 34.7 81.6 62.9 128.48 84.5 c 46.9 22.5 91.92 38.4 133.18 50.6 c 0 42.2 -0.93 81.6 -2.81 118.2 c -1.87 36.5 -6.56 74.1 -11.26 109.7 c -3.75 35.6 -10.31 73.1 -17.82 112.5 c -6.56 40.4 -15.01 86.3 -25.31 137.9 l 90.03 38.4 c 29.08 -14 62.84 -33.7 100.35 -58.1 c 39.39 -25.3 76.9 -53.4 115.35 -88.2 c 39.39 -33.7 76.91 -72.2 112.55 -116.3 c 35.64 -44 68.45 -90.9 95.66 -140.6 l 30.01 5.6 c 15.95 76.9 28.15 156.6 37.52 240.1 c 8.43 83.5 15.94 175.4 22.5 273.8 l 121.92 24.4 c 44.09 -39.4 87.22 -85.3 132.25 -136 c 45.01 -51.5 88.16 -107.8 128.48 -168.8 c 41.27 -61.9 79.73 -130.3 115.36 -204.4 c 35.64 -74.1 65.65 -154.8 90.03 -241.1 c 30.94 -39.4 65.64 -79.7 102.23 -121.9 c 37.52 -42.2 77.84 -86.3 121.92 -134.1 c 43.14 -48.8 90.04 -99.4 141.62 -155.7 c 50.63 -55.3 105.98 -118.1 165.05 -188.5 c 80.67 -92.8 164.13 -212.9 252.3 -359.2 c 89.1 -146.3 169.74 -306.7 241.97 -483 c 72.21 -176.3 133.15 -361 180.07 -555.2 c 47.81 -192.3 72.21 -381.7 72.21 -566.5 c 0 -121 -1.88 -227.8 -5.62 -320.7 c -3.75 -92.9 -10.34 -183.9 -19.71 -272 c -8.44 -89.1 -19.68 -181.9 -34.71 -279.5 c -13.11 -97.5 -30.01 -211.9 -50.63 -343.2 Z" style="fill:#ffffff;fill-opacity:1;fill-rule:nonzero;stroke:none" transform="matrix(0.13333332538604736, 0, 0, -0.13333332538604736, 0, 2666.666748046875)"/>
  <path d="M 3691.77 10535.5 c 22.51 -65.6 39.39 -132.2 51.58 -200.7 c 13.12 -69.4 19.7 -139.7 19.7 -211 c 0 -137.9 -28.14 -258.9 -83.47 -363.9 c -55.34 -106 -125.67 -204.4 -209.15 -295.4 c -83.47 -91.9 -174.44 -180.1 -271.05 -265.4 c -98.46 -84.4 -188.49 -172.6 -271.97 -264.5 c -84.41 -92.9 -152.87 -193.2 -209.14 -301.1 c -56.27 -106.9 -83.48 -229.8 -83.48 -369.5 c 0 -70.3 3.75 -130.3 12.2 -182.9 c 6.58 -51.5 15.95 -97.5 26.26 -137.8 h 2385.92 c 12.2 78.7 22.5 152.9 32.81 225.1 c 10.34 71.2 18.77 146.3 26.27 224.1 c 8.43 76.9 14.05 160.4 18.77 248.5 c 3.75 88.2 5.62 189.5 5.62 300.2 c 0 145.3 -14.09 299.1 -44.07 459.5 c -28.14 161.3 -71.29 323.6 -129.43 487.7 c -58.16 163.2 -129.44 322.6 -214.78 480.2 c -85.35 157.5 -184.76 303.8 -295.43 438.9 c -47.82 58.2 -91.91 110.7 -132.23 157.6 c -41.28 46.8 -81.6 91.9 -123.8 135.9 c -40.32 45.1 -83.47 92.9 -129.43 142.6 c -45.95 48.8 -96.59 106 -151.92 170.7 c -24.4 115.3 -63.79 225.1 -120.05 331.1 c -55.33 105 -114.43 190.3 -175.38 256.9 h -17.82 c -6.56 -64.7 -13.13 -132.2 -19.69 -205.4 c -7.52 -72.2 -18.76 -137.8 -34.7 -198.8 c -39.41 -10.3 -88.16 -21.6 -144.45 -30 c -57.2 -9.4 -116.28 -20.6 -178.19 -33.8 c -61.89 -12.2 -122.86 -28.1 -184.75 -45.9 c -60.96 -17.8 -117.23 -40.3 -165.07 -68.5 c -48.75 -28.1 -89.09 -62.8 -120.97 -104.1 c -30.01 -40.3 -45.02 -89.1 -45.02 -147.2 c 0 -13.2 0.94 -27.2 2.81 -43.2 c 1.88 -15 4.68 -29 9.39 -43.1 c -156.62 -136.9 -295.43 -278.5 -418.29 -425.8 c -122.86 -146.3 -231.66 -279.5 -323.57 -401.4 c -22.5 -17.8 -47.84 -36.6 -71.27 -55.3 c -24.38 -18.8 -45.01 -38.5 -65.64 -57.2 c -19.72 -20.7 -35.64 -41.3 -48.78 -61.9 c -14.07 -20.7 -19.69 -41.3 -19.69 -61.9 c 0 -27.2 4.69 -55.4 15 -83.5 c 9.38 -27.2 21.58 -51.6 35.63 -74.1 c 30.02 -111.6 72.21 -188.5 126.63 -232.6 c 55.33 -44.1 117.22 -66.6 186.62 -66.6 c 47.83 0 96.6 16.9 146.32 49.7 c 50.64 32.9 98.46 84.5 144.42 152.9 c 41.26 16.9 80.66 31.9 116.3 45 c 35.64 14.1 70.34 29.1 102.23 44.1 c 32.81 15 65.64 32.8 99.4 54.4 c 32.83 19.7 68.47 45 105.98 75 c 83.47 0 166.94 14.1 251.35 44.1 c 84.4 28.1 161.31 66.6 228.83 116.3 c 67.52 48.8 122.87 106.9 166 173.5 c 42.2 68.5 63.79 140.7 63.79 218.5 Z" style="fill:#ffffff;fill-opacity:1;fill-rule:nonzero;stroke:none" transform="matrix(0.13333332538604736, 0, 0, -0.13333332538604736, 0, 2666.666748046875)"/>
  <path d="M 3235.02 11678.8 c -20.61 40.3 -43.13 79.7 -69.39 118.1 c -25.33 39.4 -60.96 76 -106.92 109.8 l -9.37 -3.8 c 12.19 -39.4 20.63 -79.7 24.39 -121.9 c 3.75 -42.2 6.56 -89.1 8.43 -140.7 Z" style="fill:#ffffff;fill-opacity:1;fill-rule:nonzero;stroke:none" transform="matrix(0.13333332538604736, 0, 0, -0.13333332538604736, 0, 2666.666748046875)"/>
  <path d="M 2227.77 10105 l 2.81 -16.8 c -48.77 -27.2 -96.59 -61 -142.55 -100.4 c -45.96 -38.5 -93.78 -66.6 -143.49 -85.3 c -15.01 14 -30.95 32.8 -45.02 57.2 c -13.12 23.4 -22.51 49.7 -26.26 77.8 Z" style="fill:#ffffff;fill-opacity:1;fill-rule:nonzero;stroke:none" transform="matrix(0.13333332538604736, 0, 0, -0.13333332538604736, 0, 2666.666748046875)"/>
  <path d="M 4228.22 10911.6 c 144.44 -158.5 272.92 -341.4 385.46 -549.6 c 47.83 -88.1 95.67 -187.6 141.63 -295.4 c 46.88 -106.9 89.07 -223.2 126.59 -348.9 c 36.59 -124.7 64.72 -259.8 87.24 -403.3 c 21.56 -143.5 32.82 -294.5 32.82 -452.9 c 0 -112.6 -5.64 -227 -16.9 -346.1 c -12.17 -118.2 -32.8 -239.2 -60.01 -364.9 h -344.19 c 28.13 96.6 51.57 190.4 70.35 280.5 c 19.67 90 34.7 177.2 45.94 263.5 c 12.2 87.2 20.63 173.5 25.33 258.8 c 5.62 86.3 8.43 174.5 8.43 265.4 c 0 301.1 -41.26 588.1 -125.67 862 c -84.41 273.8 -209.14 550.5 -377.02 830.9 v 0" style="fill:#ffffff;fill-opacity:1;fill-rule:nonzero;stroke:none" transform="matrix(0.13333332538604736, 0, 0, -0.13333332538604736, 0, 2666.666748046875)"/>
  <path d="m 2885.2,11004.4 c -10.31,26.3 -14.99,47.9 -14.99,66.6 0,25.4 6.56,46.9 21.57,61.9 14.06,16 30.01,28.2 50.64,35.7 19.69,8.4 41.26,13.1 64.72,15 24.37,1.9 45.01,2.8 63.76,2.8 45.97,0 92.85,-2.8 141.62,-9.4 48.77,-7.5 90.97,-11.2 126.61,-11.2 -26.26,-28.2 -57.21,-51.6 -93.78,-71.3 -36.58,-19.7 -76.9,-37.5 -118.18,-51.6 -42.19,-13.1 -84.39,-23.5 -125.67,-29.1 -42.2,-6.5 -80.65,-9.4 -116.3,-9.4 z M 2487.56,7735.1 c -21.57,55.3 -41.26,121.9 -59.09,200.7 -17.81,76.9 -27.2,177.2 -27.2,300.1 0,151.9 28.13,288.9 83.48,409.9 56.27,121.9 125.67,232.5 210.08,331.9 83.46,101.3 174.44,195.1 272.9,281.4 97.55,87.2 189.46,171.6 272.93,254.2 83.47,82.5 152.88,165 209.14,249.4 55.33,83.5 83.48,173.5 83.48,271.1 -61.91,-61 -141.62,-114.4 -240.1,-159.5 -99.42,-45 -228.83,-70.3 -389.21,-78.8 -60.97,-44 -121.92,-80.6 -182.89,-110.6 -61.89,-30 -127.54,-55.4 -196.94,-77.9 -61.91,-69.4 -125.67,-125.6 -192.26,-167.8 -67.53,-43.2 -136,-64.8 -205.4,-64.8 -57.21,0 -110.66,10.3 -160.37,32.9 -49.71,21.5 -95.66,51.6 -136.94,90 -40.32,37.5 -75.01,81.6 -104.1,131.3 -28.12,49.7 -49.69,101.3 -63.76,157.6 -24.4,35.6 -41.28,75.9 -48.77,118.2 -9.37,43.1 -15.01,83.4 -15.01,123.7 0,32.9 10.32,64.7 30.95,99.4 19.69,35.7 44.09,68.5 71.28,101.3 27.19,31.9 57.2,59.1 86.28,83.5 30.02,23.5 56.27,42.2 77.84,53.5 67.53,89.1 128.49,166.9 180.06,232.6 53.48,65.6 105.04,126.6 156.64,183.8 49.69,57.2 102.21,113.5 157.55,168.8 55.34,55.3 120.06,118.2 196.02,187.6 -4.68,16.8 -6.57,30.9 -6.57,45 0,61.9 13.13,116.3 39.4,164.1 25.31,47.8 58.14,90 96.59,124.7 38.45,34.7 81.6,62.9 128.48,84.5 46.9,22.5 91.92,38.4 133.18,50.6 0,42.2 -0.93,81.6 -2.81,118.2 -1.87,36.5 -6.56,74.1 -11.26,109.7 -3.75,35.6 -10.31,73.1 -17.82,112.5 -6.56,40.4 -15.01,86.3 -25.31,137.9 l 90.03,38.4 c 29.08,-14 62.84,-33.7 100.35,-58.1 39.39,-25.3 76.9,-53.4 115.35,-88.2 39.39,-33.7 76.91,-72.2 112.55,-116.3 35.64,-44 68.45,-90.9 95.66,-140.6 l 30.01,5.6 c 15.95,76.9 28.15,156.6 37.52,240.1 8.43,83.5 15.94,175.4 22.5,273.8 l 121.92,24.4 c 44.09,-39.4 87.22,-85.3 132.25,-136 45.01,-51.5 88.16,-107.8 128.48,-168.8 41.27,-61.9 79.73,-130.3 115.36,-204.4 35.64,-74.1 65.65,-154.8 90.03,-241.1 30.94,-39.4 65.64,-79.7 102.23,-121.9 37.52,-42.2 77.84,-86.3 121.92,-134.1 43.14,-48.8 90.04,-99.4 141.62,-155.7 50.63,-55.3 105.98,-118.1 165.05,-188.5 80.67,-92.8 164.13,-212.9 252.3,-359.2 89.1,-146.3 169.74,-306.7 241.97,-483 72.21,-176.3 133.15,-361 180.07,-555.2 47.81,-192.3 72.21,-381.7 72.21,-566.5 0,-121 -1.88,-227.8 -5.62,-320.7 -3.75,-92.9 -10.34,-183.9 -19.71,-272 -8.44,-89.1 -19.68,-181.9 -34.71,-279.5 -13.11,-97.5 -30.01,-211.9 -50.63,-343.2 z m 1204.21,2800.4 c 22.51,-65.6 39.39,-132.2 51.58,-200.7 13.12,-69.4 19.7,-139.7 19.7,-211 0,-137.9 -28.14,-258.9 -83.47,-363.9 -55.34,-106 -125.67,-204.4 -209.15,-295.4 -83.47,-91.9 -174.44,-180.1 -271.05,-265.4 -98.46,-84.4 -188.49,-172.6 -271.97,-264.5 -84.41,-92.9 -152.87,-193.2 -209.14,-301.1 -56.27,-106.9 -83.48,-229.8 -83.48,-369.5 0,-70.3 3.75,-130.3 12.2,-182.9 6.58,-51.5 15.95,-97.5 26.26,-137.8 h 2385.92 c 12.2,78.7 22.5,152.9 32.81,225.1 10.34,71.2 18.77,146.3 26.27,224.1 8.43,76.9 14.05,160.4 18.77,248.5 3.75,88.2 5.62,189.5 5.62,300.2 0,145.3 -14.09,299.1 -44.07,459.5 -28.14,161.3 -71.29,323.6 -129.43,487.7 -58.16,163.2 -129.44,322.6 -214.78,480.2 -85.35,157.5 -184.76,303.8 -295.43,438.9 -47.82,58.2 -91.91,110.7 -132.23,157.6 -41.28,46.8 -81.6,91.9 -123.8,135.9 -40.32,45.1 -83.47,92.9 -129.43,142.6 -45.95,48.8 -96.59,106 -151.92,170.7 -24.4,115.3 -63.79,225.1 -120.05,331.1 -55.33,105 -114.43,190.3 -175.38,256.9 h -17.82 c -6.56,-64.7 -13.13,-132.2 -19.69,-205.4 -7.52,-72.2 -18.76,-137.8 -34.7,-198.8 -39.41,-10.3 -88.16,-21.6 -144.45,-30 -57.2,-9.4 -116.28,-20.6 -178.19,-33.8 -61.89,-12.2 -122.86,-28.1 -184.75,-45.9 -60.96,-17.8 -117.23,-40.3 -165.07,-68.5 -48.75,-28.1 -89.09,-62.8 -120.97,-104.1 -30.01,-40.3 -45.02,-89.1 -45.02,-147.2 0,-13.2 0.94,-27.2 2.81,-43.2 1.88,-15 4.68,-29 9.39,-43.1 -156.62,-136.9 -295.43,-278.5 -418.29,-425.8 -122.86,-146.3 -231.66,-279.5 -323.57,-401.4 -22.5,-17.8 -47.84,-36.6 -71.27,-55.3 -24.38,-18.8 -45.01,-38.5 -65.64,-57.2 -19.72,-20.7 -35.64,-41.3 -48.78,-61.9 -14.07,-20.7 -19.69,-41.3 -19.69,-61.9 0,-27.2 4.69,-55.4 15,-83.5 9.38,-27.2 21.58,-51.6 35.63,-74.1 30.02,-111.6 72.21,-188.5 126.63,-232.6 55.33,-44.1 117.22,-66.6 186.62,-66.6 47.83,0 96.6,16.9 146.32,49.7 50.64,32.9 98.46,84.5 144.42,152.9 41.26,16.9 80.66,31.9 116.3,45 35.64,14.1 70.34,29.1 102.23,44.1 32.81,15 65.64,32.8 99.4,54.4 32.83,19.7 68.47,45 105.98,75 83.47,0 166.94,14.1 251.35,44.1 84.4,28.1 161.31,66.6 228.83,116.3 67.52,48.8 122.87,106.9 166,173.5 42.2,68.5 63.79,140.7 63.79,218.5 z m -456.75,1143.3 c -20.61,40.3 -43.13,79.7 -69.39,118.1 -25.33,39.4 -60.96,76 -106.92,109.8 l -9.37,-3.8 c 12.19,-39.4 20.63,-79.7 24.39,-121.9 3.75,-42.2 6.56,-89.1 8.43,-140.7 z M 2227.77,10105 l 2.81,-16.8 c -48.77,-27.2 -96.59,-61 -142.55,-100.4 -45.96,-38.5 -93.78,-66.6 -143.49,-85.3 -15.01,14 -30.95,32.8 -45.02,57.2 -13.12,23.4 -22.51,49.7 -26.26,77.8 z m 2000.45,806.6 c 144.44,-158.5 272.92,-341.4 385.46,-549.6 47.83,-88.1 95.67,-187.6 141.63,-295.4 46.88,-106.9 89.07,-223.2 126.59,-348.9 36.59,-124.7 64.72,-259.8 87.24,-403.3 21.56,-143.5 32.82,-294.5 32.82,-452.9 0,-112.6 -5.64,-227 -16.9,-346.1 -12.17,-118.2 -32.8,-239.2 -60.01,-364.9 h -344.19 c 28.13,96.6 51.57,190.4 70.35,280.5 19.67,90 34.7,177.2 45.94,263.5 12.2,87.2 20.63,173.5 25.33,258.8 5.62,86.3 8.43,174.5 8.43,265.4 0,301.1 -41.26,588.1 -125.67,862 -84.41,273.8 -209.14,550.5 -377.02,830.9 v 0" style="fill:#100f0d;fill-opacity:1;fill-rule:evenodd;stroke:none" transform="matrix(0.13333332538604736, 0, 0, -0.13333332538604736, 0, 2666.666748046875)"/>
</svg>
