<?xml version="1.0" encoding="utf-8"?>
<svg xmlns="http://www.w3.org/2000/svg" viewBox="2765.2258 197.6539 398.907 604.1064" width="398.907px" height="604.106px">
  <path d="M 22705 17288.1 v -154.8 h -389.3 v -914.4 h -161.3 v 914.4 h -389.2 v 154.8 h 389.2 v 412.7 h 161.3 v -412.7 Z" style="fill:#ffffff;fill-opacity:1;fill-rule:nonzero;stroke:none" transform="matrix(0.13333332538604736, 0, 0, -0.13333332538604736, 0, 2666.666748046875)"/>
  <path d="M 21861.8 18147.2 c 0 52.5 10.3 101.3 29.1 146.3 c 18.7 45 45 83.4 78.8 117.2 c 32.8 32.8 71.2 60 117.2 78.8 c 45 18.8 94.7 28.1 148.2 28.1 c 53.4 0 103.2 -9.3 148.2 -28.1 c 45 -18.8 84.4 -46 117.2 -78.8 c 33.8 -33.8 59.1 -72.2 78.8 -117.2 c 18.7 -45 28.1 -93.8 28.1 -146.3 c 0 -68.5 -17.8 -128.5 -53.4 -182 c 101.3 -73.1 195 -150 283.2 -231.6 c 87.2 -79.7 164.1 -167.9 228.8 -260.7 c 64.7 -92.9 115.4 -195.1 152.9 -304.9 c 37.5 -109.7 56.3 -229.7 56.3 -360.1 c 0 -102.2 -11.3 -197.9 -31.9 -286 c -21.6 -88.2 -48.8 -167.9 -81.6 -242 c -33.8 -74.1 -71.3 -140.7 -113.5 -199.8 c -41.2 -59 -83.4 -112.5 -124.7 -160.3 l 175.3 -631.2 c -75 -49.7 -166.9 -89.1 -271.9 -119.1 c -106 -30 -219.5 -50.7 -339.5 -63.8 c 66.6 -28.1 137.8 -48.8 214.7 -61.9 c 76 -13.1 155.7 -21.6 238.3 -28.1 c 82.5 -6.6 166 -12.2 250.4 -16.9 c 85.3 -4.7 167.9 -11.3 247.6 -21.6 l 292.6 -275.7 c -4.7 -83.5 -21.6 -162.3 -49.7 -235.4 c -29.1 -74.1 -66.6 -141.6 -113.5 -203.5 c -47.9 -61.9 -104.1 -115.4 -167.9 -163.2 c -64.7 -46 -134.1 -83.5 -210.1 -112.6 l -318.8 339.5 c 29 13.2 60.9 28.2 96.6 46 c 35.6 16.9 69.4 37.5 103.1 61 c 32.9 24.3 62.8 52.5 89.1 83.4 c 26.3 31.9 44.1 68.5 53.5 108.8 c -114.5 6.6 -216.7 17.8 -306.7 33.8 c -90 15.9 -173.5 41.2 -251.3 75 c -77.9 33.8 -149.1 79.7 -215.8 136 c -66.5 57.2 -133.1 131.3 -199.7 224.1 h -9.4 c -66.6 -92.8 -133.2 -166.9 -199.8 -224.1 c -66.6 -56.3 -138.8 -102.2 -216.6 -136 c -76.9 -33.8 -161.3 -59.1 -250.4 -75 c -90 -16 -192.3 -27.2 -306.7 -33.8 c 9.4 -40.3 27.2 -76.9 53.5 -108.8 c 26.2 -30.9 56.2 -59.1 89.1 -83.4 c 32.8 -23.5 67.5 -44.1 103.1 -61 c 35.7 -17.8 67.6 -32.8 96.6 -46 l -318.8 -339.5 c -75.1 29.1 -146.4 66.6 -210.1 112.6 c -63.8 47.8 -120.1 101.3 -167.9 163.2 c -46.9 61.9 -84.4 129.4 -113.5 203.5 c -28.1 73.1 -45 151.9 -49.7 235.4 l 292.6 275.7 c 79.7 10.3 162.3 16.9 247.6 21.6 c 84.4 4.7 167.9 10.3 250.4 16.9 c 81.6 6.5 162.3 15 238.2 28.1 c 77 13.1 148.2 33.8 215.8 61.9 c -121 13.1 -234.5 33.8 -339.6 63.8 c -105.9 30 -197.9 69.4 -272.9 119.1 l 174.5 631.2 c -40.4 47.8 -82.6 101.3 -123.8 160.3 c -42.2 59.1 -79.8 125.7 -113.5 199.8 c -32.9 74.1 -60.1 153.8 -81.6 242 c -21.6 88.1 -31.9 183.8 -31.9 286 c 0 130.4 18.7 250.4 56.3 360.1 c 37.5 109.8 88.1 212 152.9 304.9 c 64.7 92.8 141.6 181 228.8 260.7 c 88.1 81.6 181.9 158.5 283.2 231.6 c -35.6 53.5 -54.4 113.5 -54.4 182 Z" style="fill:#ffffff;fill-opacity:1;fill-rule:nonzero;stroke:none" transform="matrix(0.13333332538604736, 0, 0, -0.13333332538604736, 0, 2666.666748046875)"/>
  <path d="M 22795 16050.1 c 49.7 54.4 92.8 108.8 128.5 166 c 36.5 55.4 66.6 114.5 91 176.3 c 25.3 61.9 43.1 127.6 55.3 196 c 11.2 69.5 17.8 142.6 17.8 222.3 c 0 101.3 -13.1 199.8 -39.4 294.5 c -26.3 94.7 -69.4 187.6 -129.4 280.4 c -60 91 -138.8 182 -236.4 272.9 c -97.5 90.1 -218.5 180.1 -362 271.1 c 31.9 24.4 60.1 52.5 83.5 83.5 c 23.4 30.9 35.6 75.9 35.6 134.1 c 0 58.1 -18.7 108.7 -57.2 151 c -37.5 42.2 -87.2 62.8 -147.2 62.8 c -60 0 -109.7 -20.6 -147.2 -62.8 c -37.6 -42.3 -57.3 -92.9 -57.3 -151 c 0 -58.2 12.2 -103.2 35.7 -134.1 c 23.4 -31 51.5 -59.1 83.4 -83.5 c -144.4 -91 -264.4 -181 -362 -271.1 c -97.5 -90.9 -176.3 -181.9 -236.3 -272.9 c -60.1 -92.8 -103.2 -185.7 -129.4 -280.4 c -26.3 -94.7 -39.4 -193.2 -39.4 -294.5 c 0 -79.7 6.5 -152.8 17.8 -222.3 c 12.2 -68.4 30 -134.1 55.3 -196 c 24.4 -61.8 54.4 -120.9 90.1 -176.3 c 36.5 -57.2 79.7 -111.6 129.4 -166 Z" style="fill:#ffffff;fill-opacity:1;fill-rule:nonzero;stroke:none" transform="matrix(0.13333332538604736, 0, 0, -0.13333332538604736, 0, 2666.666748046875)"/>
  <path d="M 22235.1 15564.3 c 47.8 0 98.4 -1.9 152.9 -3.7 c 54.4 -2.9 110.6 -5.7 166 -10.4 c 56.2 -2.8 111.6 -8.4 166 -15 c 53.4 -5.6 103.1 -14 149.1 -23.4 l -92.9 377 h -1082.3 l -92.8 -377 c 44.1 9.4 93.8 17.8 148.2 23.4 c 54.4 6.6 110.6 12.2 166 15 c 56.2 4.7 112.5 7.5 166.9 10.4 c 54.4 1.8 105 3.7 152.9 3.7 Z" style="fill:#ffffff;fill-opacity:1;fill-rule:nonzero;stroke:none" transform="matrix(0.13333332538604736, 0, 0, -0.13333332538604736, 0, 2666.666748046875)"/>
  <path d="M 22901.9 15358 c -49.7 13.1 -132.2 28.1 -245.7 42.2 c -113.5 14.1 -253.3 21.6 -421.1 21.6 c -167.9 0 -307.6 -7.5 -421.1 -21.6 c -113.5 -14.1 -196 -29.1 -245.7 -42.2 c 0 -12.2 17.8 -24.4 54.4 -38.5 c 36.5 -15 85.3 -27.2 147.2 -38.4 c 61.9 -12.2 132.2 -23.5 212 -31.9 c 80.6 -8.5 165 -13.1 253.2 -13.1 c 86.3 0 170.7 4.6 252.3 13.1 c 79.7 8.4 151 19.7 212.9 31.9 c 61.9 11.2 110.6 23.4 147.2 38.4 c 36.6 14.1 54.4 26.3 54.4 38.5 Z" style="fill:#ffffff;fill-opacity:1;fill-rule:nonzero;stroke:none" transform="matrix(0.13333332538604736, 0, 0, -0.13333332538604736, 0, 2666.666748046875)"/>
  <path d="M 21121.9 14619 c -101.3 0 -182 2.8 -240.1 6.5 c 19.7 -104.1 57.2 -196.9 116.2 -276.7 c 58.2 -81.5 145.4 -148.1 261.7 -200.7 l 144.5 148.2 c -50.7 24.4 -103.2 63.8 -156.7 116.3 c -53.4 51.6 -95.6 121 -125.6 206.4 Z" style="fill:#ffffff;fill-opacity:1;fill-rule:nonzero;stroke:none" transform="matrix(0.13333332538604736, 0, 0, -0.13333332538604736, 0, 2666.666748046875)"/>
  <path d="M 23348.3 14619 c -19.7 -59.1 -45.9 -107.9 -76.9 -147.3 c -30.9 -39.4 -61.9 -73.1 -93.8 -99.4 c -36.5 -30 -74 -55.4 -111.6 -76 l 144.4 -148.2 c 116.4 52.6 202.6 119.2 261.7 200.7 c 59.1 79.8 97.6 172.6 116.3 276.7 c -60 -3.7 -139.7 -6.5 -240.1 -6.5 Z" style="fill:#ffffff;fill-opacity:1;fill-rule:nonzero;stroke:none" transform="matrix(0.13333332538604736, 0, 0, -0.13333332538604736, 0, 2666.666748046875)"/>
  <path d="M 21995 15003.5 c -49.7 -31.9 -116.3 -55.4 -198.8 -71.3 c -83.5 -15 -167.9 -27.2 -256.1 -35.6 c -90 -7.5 -174.4 -14.1 -257 -17.9 c -82.5 -3.7 -149.1 -9.3 -202.5 -17.8 l -125.7 -116.3 c 22.5 -0.9 46 -1.8 69.4 -1.8 c 23.5 0 46.9 0 71.3 0 c 75.9 0 155.7 1.8 238.2 7.4 c 83.5 5.7 165.1 17.9 245.7 35.7 c 80.7 18.7 157.6 44.1 230.8 76.9 c 72.2 31.9 137.8 76 195 131.3 Z" style="fill:#ffffff;fill-opacity:1;fill-rule:nonzero;stroke:none" transform="matrix(0.13333332538604736, 0, 0, -0.13333332538604736, 0, 2666.666748046875)"/>
  <path d="M 22464.9 14994.1 c 57.2 -55.3 122.8 -99.4 195 -131.3 c 73.2 -32.8 150.1 -58.2 230.7 -76.9 c 80.7 -17.8 162.3 -30 245.8 -35.7 c 82.5 -5.6 163.2 -7.4 238.2 -7.4 c 24.4 0 47.8 0 71.3 0 c 23.4 0 46.9 0.9 68.4 1.8 l -125.6 116.3 c -52.6 8.5 -119.2 14.1 -201.7 17.8 c -82.5 3.8 -167.9 10.4 -256.9 17.9 c -88.2 8.4 -173.5 20.6 -256.1 35.6 c -82.5 15.9 -149.1 39.4 -198.8 71.3 l -10.3 -9.4" style="fill:#ffffff;fill-opacity:1;fill-rule:nonzero;stroke:none" transform="matrix(0.13333332538604736, 0, 0, -0.13333332538604736, 0, 2666.666748046875)"/>
  <path d="m 22705,17288.1 v -154.8 h -389.3 v -914.4 h -161.3 v 914.4 h -389.2 v 154.8 h 389.2 v 412.7 h 161.3 v -412.7 z m -843.2,859.1 c 0,52.5 10.3,101.3 29.1,146.3 18.7,45 45,83.4 78.8,117.2 32.8,32.8 71.2,60 117.2,78.8 45,18.8 94.7,28.1 148.2,28.1 53.4,0 103.2,-9.3 148.2,-28.1 45,-18.8 84.4,-46 117.2,-78.8 33.8,-33.8 59.1,-72.2 78.8,-117.2 18.7,-45 28.1,-93.8 28.1,-146.3 0,-68.5 -17.8,-128.5 -53.4,-182 101.3,-73.1 195,-150 283.2,-231.6 87.2,-79.7 164.1,-167.9 228.8,-260.7 64.7,-92.9 115.4,-195.1 152.9,-304.9 37.5,-109.7 56.3,-229.7 56.3,-360.1 0,-102.2 -11.3,-197.9 -31.9,-286 -21.6,-88.2 -48.8,-167.9 -81.6,-242 -33.8,-74.1 -71.3,-140.7 -113.5,-199.8 -41.2,-59 -83.4,-112.5 -124.7,-160.3 l 175.3,-631.2 c -75,-49.7 -166.9,-89.1 -271.9,-119.1 -106,-30 -219.5,-50.7 -339.5,-63.8 66.6,-28.1 137.8,-48.8 214.7,-61.9 76,-13.1 155.7,-21.6 238.3,-28.1 82.5,-6.6 166,-12.2 250.4,-16.9 85.3,-4.7 167.9,-11.3 247.6,-21.6 l 292.6,-275.7 c -4.7,-83.5 -21.6,-162.3 -49.7,-235.4 -29.1,-74.1 -66.6,-141.6 -113.5,-203.5 -47.9,-61.9 -104.1,-115.4 -167.9,-163.2 -64.7,-46 -134.1,-83.5 -210.1,-112.6 l -318.8,339.5 c 29,13.2 60.9,28.2 96.6,46 35.6,16.9 69.4,37.5 103.1,61 32.9,24.3 62.8,52.5 89.1,83.4 26.3,31.9 44.1,68.5 53.5,108.8 -114.5,6.6 -216.7,17.8 -306.7,33.8 -90,15.9 -173.5,41.2 -251.3,75 -77.9,33.8 -149.1,79.7 -215.8,136 -66.5,57.2 -133.1,131.3 -199.7,224.1 h -9.4 c -66.6,-92.8 -133.2,-166.9 -199.8,-224.1 -66.6,-56.3 -138.8,-102.2 -216.6,-136 -76.9,-33.8 -161.3,-59.1 -250.4,-75 -90,-16 -192.3,-27.2 -306.7,-33.8 9.4,-40.3 27.2,-76.9 53.5,-108.8 26.2,-30.9 56.2,-59.1 89.1,-83.4 32.8,-23.5 67.5,-44.1 103.1,-61 35.7,-17.8 67.6,-32.8 96.6,-46 l -318.8,-339.5 c -75.1,29.1 -146.4,66.6 -210.1,112.6 -63.8,47.8 -120.1,101.3 -167.9,163.2 -46.9,61.9 -84.4,129.4 -113.5,203.5 -28.1,73.1 -45,151.9 -49.7,235.4 l 292.6,275.7 c 79.7,10.3 162.3,16.9 247.6,21.6 84.4,4.7 167.9,10.3 250.4,16.9 81.6,6.5 162.3,15 238.2,28.1 77,13.1 148.2,33.8 215.8,61.9 -121,13.1 -234.5,33.8 -339.6,63.8 -105.9,30 -197.9,69.4 -272.9,119.1 l 174.5,631.2 c -40.4,47.8 -82.6,101.3 -123.8,160.3 -42.2,59.1 -79.8,125.7 -113.5,199.8 -32.9,74.1 -60.1,153.8 -81.6,242 -21.6,88.1 -31.9,183.8 -31.9,286 0,130.4 18.7,250.4 56.3,360.1 37.5,109.8 88.1,212 152.9,304.9 64.7,92.8 141.6,181 228.8,260.7 88.1,81.6 181.9,158.5 283.2,231.6 -35.6,53.5 -54.4,113.5 -54.4,182 z m 933.2,-2097.1 c 49.7,54.4 92.8,108.8 128.5,166 36.5,55.4 66.6,114.5 91,176.3 25.3,61.9 43.1,127.6 55.3,196 11.2,69.5 17.8,142.6 17.8,222.3 0,101.3 -13.1,199.8 -39.4,294.5 -26.3,94.7 -69.4,187.6 -129.4,280.4 -60,91 -138.8,182 -236.4,272.9 -97.5,90.1 -218.5,180.1 -362,271.1 31.9,24.4 60.1,52.5 83.5,83.5 23.4,30.9 35.6,75.9 35.6,134.1 0,58.1 -18.7,108.7 -57.2,151 -37.5,42.2 -87.2,62.8 -147.2,62.8 -60,0 -109.7,-20.6 -147.2,-62.8 -37.6,-42.3 -57.3,-92.9 -57.3,-151 0,-58.2 12.2,-103.2 35.7,-134.1 23.4,-31 51.5,-59.1 83.4,-83.5 -144.4,-91 -264.4,-181 -362,-271.1 -97.5,-90.9 -176.3,-181.9 -236.3,-272.9 -60.1,-92.8 -103.2,-185.7 -129.4,-280.4 -26.3,-94.7 -39.4,-193.2 -39.4,-294.5 0,-79.7 6.5,-152.8 17.8,-222.3 12.2,-68.4 30,-134.1 55.3,-196 24.4,-61.8 54.4,-120.9 90.1,-176.3 36.5,-57.2 79.7,-111.6 129.4,-166 z m -559.9,-485.8 c 47.8,0 98.4,-1.9 152.9,-3.7 54.4,-2.9 110.6,-5.7 166,-10.4 56.2,-2.8 111.6,-8.4 166,-15 53.4,-5.6 103.1,-14 149.1,-23.4 l -92.9,377 h -1082.3 l -92.8,-377 c 44.1,9.4 93.8,17.8 148.2,23.4 54.4,6.6 110.6,12.2 166,15 56.2,4.7 112.5,7.5 166.9,10.4 54.4,1.8 105,3.7 152.9,3.7 z m 666.8,-206.3 c -49.7,13.1 -132.2,28.1 -245.7,42.2 -113.5,14.1 -253.3,21.6 -421.1,21.6 -167.9,0 -307.6,-7.5 -421.1,-21.6 -113.5,-14.1 -196,-29.1 -245.7,-42.2 0,-12.2 17.8,-24.4 54.4,-38.5 36.5,-15 85.3,-27.2 147.2,-38.4 61.9,-12.2 132.2,-23.5 212,-31.9 80.6,-8.5 165,-13.1 253.2,-13.1 86.3,0 170.7,4.6 252.3,13.1 79.7,8.4 151,19.7 212.9,31.9 61.9,11.2 110.6,23.4 147.2,38.4 36.6,14.1 54.4,26.3 54.4,38.5 z m -1780,-739 c -101.3,0 -182,2.8 -240.1,6.5 19.7,-104.1 57.2,-196.9 116.2,-276.7 58.2,-81.5 145.4,-148.1 261.7,-200.7 l 144.5,148.2 c -50.7,24.4 -103.2,63.8 -156.7,116.3 -53.4,51.6 -95.6,121 -125.6,206.4 z m 2226.4,0 c -19.7,-59.1 -45.9,-107.9 -76.9,-147.3 -30.9,-39.4 -61.9,-73.1 -93.8,-99.4 -36.5,-30 -74,-55.4 -111.6,-76 l 144.4,-148.2 c 116.4,52.6 202.6,119.2 261.7,200.7 59.1,79.8 97.6,172.6 116.3,276.7 -60,-3.7 -139.7,-6.5 -240.1,-6.5 z m -1353.3,384.5 c -49.7,-31.9 -116.3,-55.4 -198.8,-71.3 -83.5,-15 -167.9,-27.2 -256.1,-35.6 -90,-7.5 -174.4,-14.1 -257,-17.9 -82.5,-3.7 -149.1,-9.3 -202.5,-17.8 l -125.7,-116.3 c 22.5,-0.9 46,-1.8 69.4,-1.8 23.5,0 46.9,0 71.3,0 75.9,0 155.7,1.8 238.2,7.4 83.5,5.7 165.1,17.9 245.7,35.7 80.7,18.7 157.6,44.1 230.8,76.9 72.2,31.9 137.8,76 195,131.3 z m 469.9,-9.4 c 57.2,-55.3 122.8,-99.4 195,-131.3 73.2,-32.8 150.1,-58.2 230.7,-76.9 80.7,-17.8 162.3,-30 245.8,-35.7 82.5,-5.6 163.2,-7.4 238.2,-7.4 24.4,0 47.8,0 71.3,0 23.4,0 46.9,0.9 68.4,1.8 l -125.6,116.3 c -52.6,8.5 -119.2,14.1 -201.7,17.8 -82.5,3.8 -167.9,10.4 -256.9,17.9 -88.2,8.4 -173.5,20.6 -256.1,35.6 -82.5,15.9 -149.1,39.4 -198.8,71.3 l -10.3,-9.4" style="fill:#100f0d;fill-opacity:1;fill-rule:evenodd;stroke:none" transform="matrix(0.13333332538604736, 0, 0, -0.13333332538604736, 0, 2666.666748046875)"/>
</svg>
